<?xml version="1.0" standalone="no"?>
<!DOCTYPE svg PUBLIC "-//W3C//DTD SVG 20010904//EN"
 "http://www.w3.org/TR/2001/REC-SVG-20010904/DTD/svg10.dtd">
<svg version="1.0" xmlns="http://www.w3.org/2000/svg"
 width="728.000000pt" height="897.000000pt" viewBox="0 0 728.000000 897.000000"
 preserveAspectRatio="xMidYMid meet">

<g transform="translate(0.000000,897.000000) scale(0.100000,-0.100000)"
fill="#000000" stroke="none">
<path d="M3425 8934 c-405 -44 -812 -114 -1267 -219 -426 -98 -586 -129 -758
-146 -266 -25 -560 26 -576 100 -14 69 -21 85 -47 105 -22 16 -31 18 -45 9 -9
-6 -16 -19 -14 -29 2 -11 4 -25 5 -33 3 -20 -15 -23 -37 -6 -20 15 -20 15 0
30 16 12 16 14 3 15 -19 0 -49 -31 -49 -51 0 -8 8 -19 18 -25 25 -16 47 -86
34 -109 -8 -15 -13 -8 -28 41 l-18 59 -6 -50 -5 -50 -100 -7 c-121 -8 -178
-27 -228 -76 -72 -70 -67 79 -65 -2082 l2 -1945 -21 -40 c-74 -143 -139 -397
-164 -639 -15 -151 -6 -513 16 -651 56 -355 193 -720 368 -980 129 -192 306
-391 406 -458 50 -33 52 -36 30 -41 -64 -15 -221 -26 -384 -26 -105 0 -175 -4
-170 -9 6 -5 48 -21 95 -35 47 -15 100 -35 119 -45 l35 -18 -89 -8 c-80 -6
-87 -9 -70 -21 22 -17 88 -18 113 -3 13 8 50 2 157 -25 187 -48 185 -47 185
-57 0 -30 -274 -64 -320 -39 l-23 12 21 -29 c24 -34 23 -34 219 -2 l123 20 42
-29 c24 -16 51 -39 61 -49 17 -20 17 -20 -29 -27 -26 -3 -95 -6 -155 -6 -90 0
-120 4 -176 25 -37 13 -69 22 -71 20 -10 -10 54 -56 99 -70 38 -13 81 -16 203
-13 102 2 159 7 167 15 15 15 -17 68 -72 118 -33 29 -36 36 -18 30 13 -4 32
-14 42 -23 14 -13 21 -13 41 -3 19 10 35 11 77 2 94 -20 130 -32 125 -40 -3
-5 20 -9 52 -9 88 -2 282 -28 293 -39 5 -5 11 -23 12 -38 l2 -29 -135 -17
c-74 -10 -190 -18 -257 -19 -182 0 -177 -17 38 -135 132 -73 164 -94 119 -80
-41 13 -18 -6 36 -30 60 -27 260 -143 310 -182 17 -12 40 -23 50 -23 25 0 44
-18 37 -35 -7 -19 33 -38 55 -27 30 16 149 34 180 27 48 -10 108 -68 128 -125
10 -27 21 -50 24 -50 23 0 134 41 259 95 154 67 245 98 481 165 80 23 213 63
295 90 83 26 177 56 210 65 70 19 166 54 180 67 5 5 5 12 -2 19 -12 12 -44 4
-235 -54 -110 -34 -353 -88 -387 -86 -24 1 259 96 387 130 175 46 312 99 312
120 0 5 -26 8 -57 8 -212 -2 -509 273 -429 396 9 14 12 25 6 25 -25 0 -5 49
41 100 28 30 46 46 41 35 -6 -11 -22 -33 -36 -48 -38 -41 -39 -68 -1 -73 17
-2 48 -9 70 -17 37 -13 40 -17 50 -68 16 -78 64 -217 82 -234 14 -15 45 -20
93 -16 23 2 127 57 194 104 20 14 30 16 36 8 6 -11 310 -194 421 -255 l53 -28
-37 -16 c-25 -9 -36 -19 -33 -28 10 -26 -34 -15 -133 32 -196 94 -424 177
-468 172 -29 -3 10 -20 350 -149 l138 -53 -80 -16 c-44 -9 -84 -20 -88 -24 -4
-5 1 -6 12 -3 41 11 195 30 201 25 3 -3 -30 -18 -73 -32 -76 -26 -152 -62
-108 -52 11 2 81 23 157 47 75 23 143 39 152 36 28 -11 17 -26 -21 -32 -21 -4
-103 -27 -183 -52 -80 -25 -167 -47 -195 -49 -59 -3 -283 -52 -305 -66 -43
-27 232 20 309 53 21 9 23 8 12 -5 -7 -8 -58 -29 -114 -46 -56 -17 -118 -38
-137 -46 l-35 -15 50 6 c50 7 220 59 240 74 5 5 80 30 165 56 85 26 195 62
243 81 99 39 235 74 286 74 21 0 52 12 80 29 25 17 85 41 134 55 87 25 88 25
107 6 21 -21 40 -26 40 -10 0 19 90 61 234 110 81 28 153 50 160 50 7 0 58 22
114 50 56 27 148 63 204 80 145 44 464 149 583 193 55 20 224 72 375 117 429
126 393 111 409 173 42 163 48 235 33 365 -6 49 -3 61 35 140 89 183 155 427
188 691 26 201 17 550 -19 761 -52 302 -131 557 -242 779 l-72 145 38 95 c41
105 84 266 100 376 6 44 10 646 10 1601 0 1701 5 1582 -67 1656 -46 47 -99 68
-194 76 l-74 7 -1 65 c0 39 -8 83 -19 109 -18 42 -19 43 -57 38 -21 -3 -38 -1
-38 3 0 18 -53 71 -62 62 -6 -6 3 -21 21 -40 47 -47 35 -81 -19 -52 -15 8 -19
5 -25 -18 -37 -149 -331 -215 -690 -153 -71 12 -308 67 -525 122 -540 137
-881 204 -1170 229 -161 14 -550 10 -705 -6z m3267 -220 c19 -42 20 -47 5 -61
-15 -15 -17 -14 -28 13 -6 16 -17 43 -25 61 -10 24 -10 33 -1 36 18 7 26 -1
49 -49z m-5903 14 c9 -15 12 -30 8 -34 -8 -8 -44 22 -59 49 -16 31 34 17 51
-15z m5821 -16 c0 -13 -12 -22 -22 -16 -10 6 -1 24 13 24 5 0 9 -4 9 -8z
m-5836 -40 c21 -34 66 -174 66 -205 0 -6 -7 -3 -15 7 -13 17 -15 18 -15 3 0
-9 -4 -17 -10 -17 -5 0 -10 5 -10 11 0 12 -29 38 -43 39 -5 0 -6 -15 -2 -32
l6 -33 -15 32 c-14 32 -19 55 -17 82 1 8 17 -1 41 -23 22 -20 42 -36 44 -36 9
0 -63 105 -88 130 -14 14 -26 29 -26 33 0 15 20 6 47 -23 15 -16 31 -30 35
-30 16 0 7 28 -17 54 -14 15 -23 32 -20 37 9 14 13 11 39 -29z m5778 1 c6 -16
10 -32 9 -37 -1 -4 3 -14 8 -20 6 -7 22 -43 36 -79 22 -60 24 -76 18 -158 l-6
-91 -50 99 c-27 54 -54 101 -60 104 -5 4 -6 12 -2 19 6 9 4 11 -5 5 -10 -6
-12 -4 -7 9 4 10 7 24 7 32 0 31 18 11 50 -57 41 -84 51 -74 20 22 -13 38 -20
72 -17 75 3 3 -3 14 -14 25 -19 19 -26 59 -12 72 10 11 13 9 25 -20z m84 -19
c16 -39 11 -88 -8 -82 -17 6 -29 58 -22 91 7 36 12 34 30 -9z m-2560 -19 c129
-14 382 -59 392 -70 3 -3 -313 -5 -703 -5 -390 0 -706 2 -703 5 7 7 317 63
408 74 124 14 464 12 606 -4z m2431 -27 c-3 -8 -6 -5 -6 6 -1 11 2 17 5 13 3
-3 4 -12 1 -19z m-5785 -173 c112 -141 140 -201 71 -149 -21 15 -40 29 -43 31
-2 2 2 9 10 14 13 9 12 10 -2 5 -32 -10 -89 92 -73 132 6 15 7 15 18 -3 6 -11
14 -24 19 -30z m127 -42 c6 -31 11 -70 11 -87 0 -30 -1 -30 -13 -10 -6 12 -25
43 -41 68 -34 55 -38 82 -13 80 9 -1 17 2 17 7 0 5 6 6 14 3 7 -3 19 -30 25
-61z m5677 2 c10 -27 28 -66 41 -85 28 -42 29 -50 4 -50 -30 0 -70 60 -82 124
-17 93 4 100 37 11z m-5598 -59 c22 -33 32 -60 32 -85 0 -45 -36 -118 -71
-144 -35 -25 -103 -37 -145 -25 -69 19 -134 102 -134 170 1 33 44 108 66 115
13 4 25 -69 17 -108 -13 -69 65 -139 130 -116 59 20 92 122 63 191 -31 75 -8
75 42 2z m5520 4 c-39 -26 -58 -50 -65 -80 -3 -17 -9 -30 -14 -30 -25 0 8 91
49 133 25 26 27 27 40 10 11 -16 10 -20 -10 -33z m241 3 c17 -20 33 -49 36
-64 14 -61 -34 -152 -96 -184 -30 -16 -144 -21 -135 -6 4 5 -2 7 -11 5 -36 -8
-93 68 -93 124 0 51 40 112 73 112 2 0 7 -29 9 -63 10 -115 46 -149 118 -112
46 24 64 74 57 158 -3 37 -2 67 3 67 5 0 22 -17 39 -37z m-3582 -67 c203 -29
346 -56 486 -91 163 -41 384 -112 392 -125 10 -16 -11 -12 -162 35 -425 132
-729 179 -1163 179 -319 1 -546 -24 -793 -85 -401 -100 -662 -299 -722 -550
-51 -217 26 -428 200 -545 69 -47 42 -43 -32 5 -135 87 -203 227 -203 417 0
205 101 373 305 509 209 138 430 209 785 249 74 9 151 18 170 20 87 10 630 -3
737 -18z m3414 -16 c6 0 7 -4 4 -10 -12 -19 -25 -10 -24 18 1 16 3 20 6 10 2
-10 9 -18 14 -18z m-5776 11 c3 -5 1 -12 -5 -16 -5 -3 -10 1 -10 9 0 18 6 21
15 7z m2195 -31 c173 -13 457 -60 630 -105 161 -42 400 -116 400 -125 0 -3
-13 -21 -28 -39 -27 -33 -29 -33 -53 -18 -73 46 -532 182 -730 216 -263 45
-694 52 -938 16 -428 -63 -755 -217 -901 -427 -62 -87 -82 -147 -82 -243 0
-146 44 -263 138 -364 72 -79 110 -93 257 -99 110 -4 118 -6 102 -21 -25 -25
-193 -21 -264 7 -30 12 -57 20 -59 17 -2 -2 -36 29 -76 69 -216 219 -233 504
-41 722 83 96 271 209 461 277 153 55 407 105 614 120 107 8 446 6 570 -3z
m71 -84 c241 -29 488 -91 714 -179 151 -58 167 -67 155 -87 -10 -16 -8 -17
-205 44 -633 196 -1067 229 -1540 116 -266 -63 -484 -171 -633 -314 -121 -115
-169 -222 -160 -361 6 -90 40 -166 105 -236 26 -29 39 -47 28 -41 -30 15 -120
113 -140 152 -73 141 -82 308 -23 429 25 52 150 182 220 229 209 142 534 240
878 266 108 8 477 -3 601 -18z m2766 -13 c5 3 9 -12 9 -33 1 -36 0 -38 -19
-29 -15 8 -22 8 -28 -2 -7 -11 -9 -9 -9 5 0 10 -8 25 -17 32 -17 13 -17 13 0
14 10 0 20 7 23 15 5 12 10 13 20 4 7 -6 17 -8 21 -6z m-671 -63 c57 -24 107
-71 153 -145 26 -41 49 -66 64 -69 100 -21 132 -31 158 -53 16 -14 29 -19 29
-13 0 19 73 6 116 -21 25 -15 44 -39 61 -76 22 -47 24 -65 21 -136 -3 -45 -8
-90 -12 -100 -7 -13 -5 -16 8 -11 41 16 96 -79 96 -166 0 -90 -68 -179 -147
-194 -37 -6 -46 9 -10 18 12 3 37 21 55 39 35 36 50 92 38 141 -10 41 -26 30
-26 -19 0 -91 -40 -129 -137 -130 -34 0 -64 -3 -67 -6 -4 -3 12 -14 35 -24 36
-16 40 -22 34 -44 -20 -80 -85 -134 -190 -156 -88 -18 -218 -18 -270 0 -47 17
-56 13 -21 -10 106 -69 410 -29 474 63 11 15 26 47 35 72 l16 45 -6 -40 c-9
-65 -52 -135 -102 -167 -42 -26 -52 -28 -149 -28 -97 0 -106 -2 -145 -28 -68
-46 -99 -53 -159 -36 -28 9 -63 23 -77 32 -24 16 -25 16 -13 0 8 -10 29 -23
48 -30 36 -13 45 -28 17 -28 -29 1 -93 27 -115 47 -21 19 -21 41 1 166 4 26 5
47 1 47 -4 0 -38 -23 -75 -50 -38 -28 -79 -53 -92 -56 -99 -25 -206 66 -154
132 21 27 18 59 -5 50 -8 -3 -14 1 -14 9 0 24 -14 18 -39 -16 -54 -73 -148
-72 -214 2 -21 23 -35 34 -31 23 25 -71 140 -118 205 -84 10 6 19 7 19 2 0 -9
-22 -19 -74 -36 -48 -16 -141 36 -171 95 -22 42 -48 243 -42 326 5 73 23 120
74 203 l28 45 -32 -23 c-32 -23 -62 -60 -78 -97 -8 -17 -10 -13 -13 19 -5 53
25 179 49 211 43 54 116 69 198 40 46 -16 74 -10 119 25 29 23 19 26 -18 5
-39 -22 -49 -17 -12 6 18 12 31 24 28 26 -6 6 -40 -13 -60 -33 -15 -14 -20
-14 -63 0 -121 41 -209 1 -265 -119 -20 -45 -23 -66 -24 -198 -1 -81 -3 -150
-6 -152 -9 -9 -96 26 -113 45 -10 11 -19 38 -22 62 -4 35 1 55 26 102 17 32
31 62 31 66 0 4 -11 11 -24 14 -63 16 -127 106 -124 176 0 26 2 29 5 10 8 -50
24 -88 45 -106 l21 -19 -17 32 c-22 44 -20 111 4 147 27 42 87 76 135 77 32 0
36 2 20 9 -11 5 -33 9 -50 10 l-30 1 24 19 c49 42 162 10 197 -55 10 -19 20
-35 22 -35 2 0 24 23 50 51 51 54 109 77 154 60 18 -7 29 -4 47 10 30 25 78
24 116 -1 32 -21 60 -27 50 -10 -13 21 44 9 59 -12 14 -19 16 -20 22 -4 3 9
26 28 49 42 77 45 167 50 251 14z m417 5 c1 -5 -6 -11 -15 -13 -11 -2 -18 3
-18 13 0 17 30 18 33 0z m-2666 -109 c-4 -11 -1 -13 10 -9 11 4 14 2 9 -5 -10
-16 -36 -15 -36 1 0 13 9 27 18 27 2 0 2 -7 -1 -14z m3115 -108 l33 4 -24 -26
c-21 -22 -23 -29 -13 -51 12 -26 4 -33 -15 -14 -8 8 -17 7 -34 -5 -33 -22 -40
-20 -33 10 5 19 1 29 -16 41 l-22 16 31 13 c24 10 31 20 32 41 l1 28 13 -30
c11 -26 17 -30 47 -27z m-3567 -18 c-5 -8 -11 -8 -17 -2 -6 6 -7 16 -3 22 5 8
11 8 17 2 6 -6 7 -16 3 -22z m-422 -80 c3 -13 14 -20 28 -20 21 0 22 -1 5 -13
-15 -11 -16 -18 -8 -33 9 -18 7 -19 -29 -20 -26 -1 -38 3 -36 10 3 6 -5 21
-16 34 l-20 22 26 0 c20 0 27 5 27 20 0 11 4 20 9 20 5 0 11 -9 14 -20z m1176
-54 c134 -37 275 -112 387 -204 67 -55 172 -180 214 -253 21 -39 22 -42 4 -35
-42 17 -223 47 -343 57 -185 17 -447 2 -676 -37 -144 -24 -375 -81 -445 -109
-267 -109 -374 -219 -387 -400 l-6 -73 -51 -5 c-28 -3 -52 -4 -54 -2 -1 1 2
46 8 101 34 326 185 592 435 764 l80 54 -58 -64 c-61 -68 -132 -199 -143 -262
-10 -61 8 -44 49 45 122 267 335 421 596 432 46 2 86 7 90 11 10 11 243 -4
300 -20z m3345 -78 c16 -26 -16 -57 -38 -38 -17 13 -21 42 -9 54 11 11 35 3
47 -16z m286 -8 c0 -11 -6 -20 -14 -20 -18 0 -29 16 -21 30 11 18 35 11 35
-10z m-686 -40 c8 0 11 -10 8 -28 -2 -19 -9 -28 -23 -28 -10 0 -19 6 -19 13 0
7 -6 13 -12 13 -10 0 -9 3 1 9 8 5 10 14 6 22 -6 9 -3 11 9 6 10 -4 23 -7 30
-7z m-4431 -40 c19 0 19 -1 4 -18 -11 -12 -13 -22 -7 -32 16 -24 11 -31 -15
-24 -15 4 -32 1 -40 -6 -13 -11 -15 -8 -15 14 0 15 -7 29 -15 32 -22 9 -18 24
5 24 13 0 24 10 31 28 l11 27 11 -22 c5 -13 19 -23 30 -23z m5107 -103 c51
-34 68 -71 76 -169 l7 -87 -31 -30 c-36 -37 -85 -42 -102 -12 -16 30 -12 41
14 41 26 0 41 14 32 29 -4 5 -19 4 -37 -2 -28 -11 -33 -10 -50 12 -10 13 -19
36 -19 52 0 31 -20 42 -21 12 0 -15 -3 -14 -16 5 -22 31 -47 29 -39 -4 6 -23
5 -24 -13 -14 -27 14 -41 42 -41 80 0 84 159 142 240 87z m-6049 -68 c10 -11
23 -18 28 -14 6 3 11 2 11 -3 0 -6 -7 -13 -16 -16 -9 -4 -13 -13 -10 -23 5
-15 -1 -18 -29 -19 -31 0 -34 2 -29 23 4 14 2 23 -5 23 -6 0 -11 5 -11 10 0 6
7 10 15 10 8 0 15 7 15 15 0 21 9 19 31 -6z m5698 -31 c231 -234 112 -628
-257 -851 -221 -134 -409 -179 -742 -179 -505 0 -796 89 -1237 380 l-161 107
-1 48 c-1 26 2 47 5 47 3 0 29 -20 58 -45 132 -113 384 -263 566 -338 250
-103 520 -143 795 -118 210 20 355 58 485 128 80 43 98 57 181 139 136 133
190 310 138 449 -22 59 -78 125 -107 125 -9 1 -28 7 -41 14 -23 13 -21 14 30
18 69 6 170 51 198 89 12 16 28 29 35 29 7 0 32 -19 55 -42z m201 -133 l45
-46 -1 -97 c-3 -204 -108 -421 -269 -554 -303 -252 -773 -356 -1302 -288 -358
46 -543 108 -878 292 -85 46 -92 52 -108 97 -10 29 -33 63 -61 89 -32 30 -43
47 -39 61 5 18 13 14 82 -38 311 -236 586 -353 990 -422 253 -43 631 -20 861
52 192 61 422 209 516 333 115 151 150 317 109 529 -4 20 -3 37 2 37 5 0 29
-20 53 -45z m-566 9 c65 -23 172 -122 188 -176 17 -57 -2 -154 -48 -247 -54
-109 -142 -194 -264 -253 -180 -87 -300 -115 -530 -124 -477 -20 -865 113
-1285 441 -87 68 -96 81 -108 143 -7 32 -4 31 81 -48 106 -99 273 -213 403
-274 126 -60 370 -140 489 -161 148 -26 450 -31 584 -10 303 47 543 194 587
359 6 22 9 70 7 107 -3 54 -9 73 -31 103 -16 20 -41 43 -57 51 -62 32 -156 8
-190 -48 -24 -39 -30 -23 -15 38 10 36 23 59 51 83 42 36 69 39 138 16z
m-2759 -4 c260 -24 451 -70 544 -129 43 -28 78 -67 68 -77 -2 -3 -31 9 -63 25
-274 136 -791 165 -1259 70 -218 -44 -454 -144 -520 -222 -74 -86 -83 -214
-29 -427 64 -256 201 -448 428 -602 233 -156 458 -228 716 -228 139 0 230 18
330 65 63 30 92 53 179 143 105 108 114 107 36 -3 -63 -87 -142 -160 -206
-190 -229 -104 -539 -95 -826 25 -271 113 -518 320 -623 521 -84 161 -150 427
-135 544 15 126 110 243 252 311 298 144 719 210 1108 174z m-1622 -15 c1 -5
-6 -11 -15 -13 -11 -2 -18 3 -18 13 0 17 30 18 33 0z m1777 -120 c121 -17 163
-25 157 -31 -2 -2 -66 3 -143 11 -76 8 -240 16 -364 17 -141 1 -201 4 -160 8
126 13 403 10 510 -5z m-587 -12 c-7 -2 -21 -2 -30 0 -10 3 -4 5 12 5 17 0 24
-2 18 -5z m-2027 -38 c6 -25 36 -41 54 -30 5 3 10 2 10 -4 0 -6 -9 -15 -21
-21 -12 -7 -18 -17 -15 -27 3 -8 9 -27 13 -41 l6 -26 -28 18 c-27 18 -28 18
-55 -3 l-28 -20 5 38 c4 31 1 41 -16 53 -24 17 -18 28 16 28 18 0 25 7 30 30
7 36 20 39 29 5z m2557 -40 c133 -17 305 -59 325 -79 8 -7 18 -56 25 -115 20
-181 -15 -406 -85 -549 -42 -85 -53 -88 -22 -6 40 108 56 191 55 299 0 110
-17 188 -56 265 -31 61 -46 65 -33 8 16 -67 12 -302 -6 -384 -39 -181 -149
-384 -279 -518 -29 -29 -62 -58 -75 -65 -18 -10 -16 -2 18 50 44 68 92 185
117 287 25 100 25 393 0 482 -33 117 -75 189 -152 268 l-73 72 64 0 c34 0 114
-7 177 -15z m1449 -67 c-32 -51 -65 -71 -125 -76 -69 -5 -119 11 -152 49 -32
39 -33 60 0 25 29 -32 83 -56 122 -56 38 1 103 32 132 64 34 36 47 33 23 -6z
m-3320 -29 c35 -11 84 -34 110 -51 l47 -29 -6 -137 c-5 -108 -10 -142 -24
-162 -9 -14 -19 -41 -21 -60 -3 -34 -4 -35 -38 -30 -19 3 -84 4 -145 4 -84 -1
-124 -6 -169 -23 -168 -60 -306 -184 -357 -320 -36 -98 -23 -245 32 -353 10
-20 19 -39 19 -42 0 -2 -37 -19 -82 -36 -76 -30 -90 -32 -173 -28 -106 5 -179
33 -225 84 -66 76 -66 202 2 279 35 41 50 44 67 11 7 -13 28 -30 47 -39 32
-16 34 -19 34 -69 1 -88 63 -189 125 -200 23 -5 21 -2 -16 30 -52 44 -78 101
-79 167 l0 51 43 11 c24 7 54 21 68 32 l24 20 -40 -14 c-56 -20 -92 -18 -141
5 -56 28 -70 62 -56 136 16 78 31 99 24 36 -5 -57 11 -93 50 -112 20 -9 21 -9
7 2 -26 22 -39 54 -39 100 1 90 67 174 172 218 l56 23 -19 31 c-36 59 -19 118
51 179 107 91 252 74 419 -49 57 -43 70 -48 125 -52 45 -2 57 0 46 7 -8 6 -28
11 -43 11 -46 0 -91 25 -131 71 -20 24 -47 46 -59 49 -17 4 -23 14 -25 41 -3
31 2 41 34 69 77 68 147 77 212 30 23 -17 42 -26 42 -21 0 16 -58 59 -89 66
-81 18 -219 -69 -221 -139 0 -13 -4 -16 -17 -11 -10 4 -34 13 -53 20 -19 7
-36 18 -38 23 -5 17 18 53 71 109 87 92 224 114 379 62z m5193 -179 c32 -64
72 -187 97 -304 20 -89 22 -130 22 -356 0 -278 -15 -413 -70 -605 -55 -195
-159 -442 -200 -476 -18 -15 -16 -11 54 131 59 119 131 356 164 540 29 163 36
490 14 653 -18 128 -72 329 -111 416 -29 63 -34 98 -9 66 9 -11 26 -40 39 -65z
m-31 -100 c46 -116 82 -261 97 -390 20 -180 -2 -469 -52 -662 -26 -103 -79
-271 -84 -266 -2 2 7 53 20 113 41 193 55 314 55 491 0 289 -31 503 -100 697
-30 85 -31 90 -14 115 16 24 18 24 30 8 7 -10 29 -58 48 -106z m-6080 70 c8 0
13 -11 12 -28 -1 -24 -5 -29 -28 -29 -21 0 -28 5 -28 19 0 10 -4 18 -10 18 -5
0 -10 5 -10 10 0 6 7 10 15 10 9 0 19 8 23 18 6 16 7 16 10 0 2 -10 9 -18 16
-18z m4928 -42 c-5 -20 -38 -25 -44 -6 -2 6 3 19 11 28 19 19 40 5 33 -22z
m-1502 -3 c9 -10 11 -50 9 -135 -4 -108 -6 -122 -26 -142 -12 -12 -25 -19 -29
-16 -8 8 18 308 27 308 3 0 12 -7 19 -15z m-2106 -206 c22 -85 53 -174 77
-221 22 -44 38 -86 35 -94 -9 -23 -73 -28 -124 -8 -90 34 -212 188 -212 266 0
47 14 32 40 -43 30 -89 72 -149 103 -149 22 0 22 2 -20 88 -56 112 -66 183
-33 236 20 34 61 65 86 66 6 0 27 -64 48 -141z m-336 -35 c29 -6 30 -8 40 -87
6 -45 9 -83 8 -84 -1 -1 -23 9 -50 22 -66 33 -187 59 -250 52 -67 -7 -143 -33
-183 -63 -17 -13 -36 -24 -40 -24 -19 0 -73 -67 -97 -120 -20 -43 -26 -70 -25
-120 l1 -65 10 45 c18 87 49 175 75 213 35 50 49 47 22 -5 l-22 -43 43 39 c23
21 68 50 99 65 49 23 69 26 157 26 96 0 105 -2 170 -35 l69 -35 53 -104 c59
-114 57 -100 20 -246 -10 -40 -55 -89 -143 -160 -52 -41 -97 -40 -155 3 -25
18 -46 28 -48 22 -7 -20 40 -69 83 -85 55 -22 99 -14 154 25 48 35 55 37 41
10 -16 -29 -92 -70 -131 -70 -44 1 -106 29 -145 68 -18 16 -41 33 -53 37 -11
3 -21 11 -21 16 0 5 -4 9 -10 9 -5 0 -8 -6 -6 -12 3 -7 7 -26 11 -41 6 -28 5
-29 -27 -22 -18 4 -50 16 -70 26 -20 10 -43 16 -51 13 -9 -3 -34 17 -65 51
-85 93 -112 205 -77 323 17 58 105 174 176 235 53 46 151 95 222 113 56 13
166 18 215 8z m4979 -20 c8 -22 -18 -37 -36 -20 -7 8 -10 19 -7 25 10 16 36
13 43 -5z m-173 -246 c8 1 12 -10 12 -33 -1 -26 -5 -34 -15 -30 -8 3 -22 -2
-32 -11 -18 -16 -19 -16 -19 10 0 16 -7 29 -17 33 -14 5 -13 8 5 14 14 5 22
17 22 31 1 23 1 23 16 3 8 -11 21 -19 28 -17z m-1798 -15 c1 -13 -2 -23 -6
-23 -5 0 -15 -3 -24 -6 -12 -4 -14 1 -12 23 2 15 4 28 5 28 19 6 36 -4 37 -22z
m-495 -62 c33 -34 37 -67 13 -113 l-17 -32 32 27 c18 15 39 27 47 27 8 0 14 9
14 20 0 16 7 20 35 20 46 0 78 -16 98 -50 49 -82 21 -198 -53 -227 -23 -9 -42
-25 -46 -37 -3 -12 -16 -31 -27 -43 -57 -63 -184 17 -163 102 7 28 -5 33 -24
10 -15 -18 -42 -19 -58 -3 -19 19 -15 75 6 90 21 14 76 108 68 115 -2 3 -18
-3 -35 -13 -29 -17 -31 -17 -51 1 -30 27 -25 60 15 100 48 47 102 49 146 6z
m1781 -45 c7 4 8 2 4 -4 -4 -7 -3 -12 2 -12 6 0 8 -9 5 -19 -6 -25 -63 -35
-63 -11 0 9 -5 21 -12 28 -9 9 -8 12 5 12 10 0 20 7 24 16 5 15 7 15 15 0 5
-9 14 -13 20 -10z m-553 -52 c-15 -18 -28 -18 -36 2 -8 20 17 36 34 22 10 -8
10 -14 2 -24z m-3328 -65 c38 -71 106 -136 232 -220 304 -203 704 -314 1072
-296 135 7 206 23 315 73 141 66 175 128 133 247 -13 36 -14 50 -5 59 9 9 17
7 33 -8 106 -96 97 -274 -18 -358 -196 -143 -445 -205 -705 -177 -423 45 -849
228 -1070 459 -84 88 -99 125 -79 198 11 42 37 84 51 84 5 0 23 -27 41 -61z
m324 -84 c103 -74 181 -116 329 -181 228 -98 232 -99 471 -99 171 0 222 4 274
18 83 24 177 71 218 110 40 38 49 33 21 -12 -28 -44 -125 -106 -205 -131 -249
-77 -640 -30 -949 115 -95 44 -258 147 -319 201 -34 30 -26 26 106 -64 93 -64
247 -147 256 -139 2 3 -21 19 -52 37 -72 41 -186 132 -250 201 -44 46 -46 50
-14 27 20 -15 71 -52 114 -83z m2293 46 c207 -52 358 -64 852 -66 429 -1 466
-5 590 -61 65 -29 167 -127 227 -217 124 -189 97 -485 -68 -728 -23 -35 -50
-69 -58 -76 -16 -13 -71 -18 -71 -7 0 3 20 29 43 57 134 159 187 287 187 453
0 257 -169 429 -451 458 -256 27 -637 -109 -817 -291 l-73 -74 -92 21 c-123
29 -325 92 -310 97 6 2 38 -3 71 -11 33 -9 75 -16 93 -15 l34 1 -40 16 c-58
24 -275 131 -275 136 0 2 60 -20 133 -50 138 -58 296 -104 352 -104 26 0 41 8
67 39 80 93 282 213 419 250 41 11 113 25 162 31 48 7 87 16 87 21 0 19 -61
21 -226 9 -190 -15 -350 -10 -518 15 -130 20 -341 76 -393 105 -21 12 -30 19
-20 16 10 -3 53 -15 95 -25z m1846 -67 c9 -23 8 -24 -13 -24 -14 0 -18 5 -14
20 6 24 19 26 27 4z m-1591 -124 c4 -14 14 -20 33 -20 26 0 26 -1 10 -19 -12
-13 -15 -27 -10 -45 7 -28 -10 -37 -20 -11 -3 8 -12 15 -20 15 -7 0 -16 -7
-20 -15 -10 -27 -23 -16 -18 16 3 21 -1 34 -14 44 -18 14 -17 14 9 15 20 0 27
5 27 20 0 11 4 20 9 20 5 0 11 -9 14 -20z m1432 -62 c71 -64 126 -146 157
-236 30 -89 32 -250 4 -332 -32 -96 -115 -259 -152 -300 -31 -34 -42 -40 -76
-40 l-39 0 44 63 c81 113 124 222 153 384 l13 78 -3 -115 c-2 -106 -1 -112 11
-81 65 159 10 386 -137 569 -28 34 -47 62 -42 62 4 0 34 -24 67 -52z m-5190 7
c54 -9 122 -49 140 -84 19 -39 9 -45 -29 -17 -17 13 -44 31 -61 41 -29 16 -29
16 5 -15 25 -23 29 -30 15 -26 -189 52 -335 21 -439 -95 -58 -64 -81 -131 -80
-229 2 -127 77 -285 184 -384 34 -31 57 -56 52 -56 -21 0 -131 82 -183 136
-106 110 -150 209 -150 334 0 191 131 350 321 389 95 19 134 20 225 6z m4825
-3 c14 -6 23 -11 20 -11 -3 -1 -51 -3 -106 -6 -183 -8 -337 -53 -528 -153 -93
-49 -196 -134 -222 -184 -14 -26 -18 -28 -78 -28 -150 0 -400 70 -576 161
-137 71 -163 98 -40 40 157 -73 364 -133 504 -146 33 -3 71 -8 83 -11 18 -3
26 4 42 34 61 119 294 249 551 307 74 17 308 15 350 -3z m-4064 -74 c205 -159
327 -279 484 -480 41 -53 76 -95 78 -93 5 5 -84 176 -122 235 -20 30 -36 58
-36 62 0 5 17 0 38 -11 81 -41 329 -134 416 -156 116 -29 297 -46 465 -44
l131 1 24 -35 24 -35 -47 -5 c-25 -3 -125 -15 -221 -26 -165 -20 -176 -20
-187 -4 -19 25 -16 51 7 58 11 3 91 10 177 15 150 8 159 8 175 -11 22 -26 28
-24 15 6 -12 25 -12 25 -117 20 -218 -11 -269 -17 -280 -30 -17 -20 -1 -97 21
-102 41 -11 3 -21 -103 -28 -62 -3 -120 -8 -129 -11 -13 -4 -17 -26 -23 -122
-6 -107 -39 -399 -52 -464 -3 -16 -9 -28 -12 -28 -4 0 -18 44 -30 98 -40 168
-120 391 -197 548 -82 168 -168 291 -308 440 -98 104 -167 146 -271 166 l-68
13 48 22 c62 28 65 28 100 1z m2100 -100 c37 -25 56 -48 80 -96 35 -70 71
-201 81 -293 l6 -60 -33 3 -33 3 -27 110 c-30 122 -89 282 -120 325 -36 51
-22 53 46 8z m-2203 -14 c140 -48 340 -281 472 -549 143 -291 215 -676 215
-1153 l0 -134 30 7 c28 6 30 5 30 -24 0 -25 -5 -32 -27 -37 -16 -4 -79 -21
-142 -39 -91 -26 -121 -31 -147 -23 -47 12 -50 25 -10 39 45 16 39 25 -23 33
-28 4 -52 10 -55 15 -3 4 22 21 55 36 84 41 90 51 31 59 -27 3 -57 12 -67 20
-17 12 -11 16 61 40 43 14 92 35 109 46 l30 20 -130 -7 c-108 -5 -132 -3 -143
9 -10 13 -4 17 42 27 64 14 119 51 166 112 19 24 37 46 40 49 3 3 6 18 8 35 3
28 3 29 -15 12 -24 -21 -127 -57 -165 -57 -37 0 -36 17 1 25 41 9 112 74 160
145 44 66 67 151 55 203 l-7 32 -12 -47 c-8 -32 -29 -67 -66 -110 -30 -35 -65
-76 -78 -93 l-23 -30 6 35 c13 73 36 304 35 343 l-1 42 -9 -40 c-25 -113 -53
-223 -61 -245 -10 -24 -10 -24 -18 -5 -4 11 -8 52 -9 90 -4 192 -48 374 -130
540 -105 213 -214 334 -366 406 -64 30 -165 54 -196 46 -21 -6 -21 -5 -13 17
13 34 74 60 138 59 251 -5 497 -266 623 -663 l24 -75 -6 63 c-14 146 -94 342
-194 474 -103 136 -222 221 -348 249 -37 9 -50 15 -41 21 18 12 113 2 171 -18z
m2090 -56 c60 -79 147 -291 147 -355 0 -24 -2 -25 -37 -19 -21 3 -57 6 -80 6
-41 0 -42 1 -53 43 -6 23 -23 76 -38 117 -25 70 -38 170 -21 170 4 0 39 -64
77 -142 39 -79 71 -133 71 -121 1 28 -41 144 -84 234 -44 93 -33 135 18 67z
m389 -131 c20 -40 100 -268 95 -273 -1 -1 -32 3 -68 8 l-67 10 -7 66 c-6 54
-52 243 -80 327 -11 32 103 -92 127 -138z m1498 115 c0 -27 -9 -33 -133 -94
-226 -111 -449 -261 -584 -393 l-65 -62 -76 -7 c-43 -4 -92 -9 -109 -12 -32
-6 -33 -5 -33 27 0 28 11 44 64 96 80 77 233 179 360 238 52 24 179 77 283
119 103 41 208 84 233 95 58 27 60 26 60 -7z m-1260 -70 c63 -27 161 -69 218
-92 56 -24 101 -45 99 -47 -12 -12 -457 176 -457 193 0 3 6 4 13 1 6 -3 64
-28 127 -55z m1320 -2 c-11 -20 -10 -21 9 -15 11 3 30 1 41 -5 21 -11 21 -12
3 -26 -15 -11 -10 -11 26 1 49 17 67 11 36 -11 -11 -8 -112 -61 -225 -118
-113 -56 -261 -137 -329 -180 -126 -80 -248 -143 -257 -133 -3 3 16 18 43 33
26 15 82 51 123 79 41 29 118 78 169 110 52 32 90 60 83 63 -23 7 -144 -61
-297 -169 -114 -79 -165 -109 -182 -107 -22 3 -21 6 29 53 29 28 44 40 34 27
-32 -38 -12 -34 50 11 32 24 107 76 166 116 60 40 111 77 114 82 6 10 -91 -45
-166 -93 -42 -27 -43 -28 -15 -3 87 75 183 140 296 199 112 59 248 117 257
110 2 -1 -2 -12 -8 -24z m-4857 -50 c4 -15 14 -20 39 -20 l33 -1 -28 -15 c-16
-9 -27 -21 -24 -27 2 -7 8 -23 12 -36 l7 -24 -31 22 c-27 19 -32 20 -37 7 -3
-9 -12 -16 -20 -16 -10 0 -11 6 -4 25 8 20 5 27 -13 40 l-21 15 22 0 c14 0 27
9 34 25 14 30 24 32 31 5z m644 -42 c71 -26 164 -96 215 -162 125 -162 230
-421 245 -606 11 -144 -35 -350 -106 -470 l-26 -45 -6 125 c-5 102 -21 210
-32 210 -1 0 -2 -62 -2 -137 0 -104 -4 -152 -18 -195 -10 -32 -21 -58 -26 -58
-5 0 -19 33 -31 73 -25 80 -81 220 -85 215 -2 -2 5 -39 16 -83 29 -119 29
-295 -1 -295 -5 0 -33 46 -61 103 -74 143 -174 244 -309 311 -154 75 -231 80
-384 25 -44 -16 -81 -29 -83 -29 -12 0 7 46 79 197 l83 173 110 -4 c171 -7
284 -45 413 -140 69 -51 72 -52 72 -32 0 19 -111 98 -183 131 -99 46 -209 68
-314 63 -108 -5 -102 -19 -48 127 18 50 46 125 61 168 19 55 39 90 70 124 43
45 44 46 93 40 76 -9 188 -63 170 -82 -3 -2 -43 2 -89 11 -46 8 -88 10 -92 6
-5 -5 24 -18 64 -30 126 -38 137 -60 17 -34 -93 19 -142 8 -64 -15 81 -23 135
-45 135 -54 0 -12 -14 -11 -95 6 -79 17 -139 20 -115 6 8 -5 52 -19 98 -31 45
-12 85 -26 88 -31 7 -12 -9 -11 -86 6 -78 17 -100 18 -100 5 0 -5 19 -14 43
-20 69 -18 127 -41 127 -52 0 -5 -9 -6 -21 -3 -33 11 -173 34 -178 30 -2 -2 7
-6 20 -9 13 -2 51 -10 84 -16 33 -7 83 -23 110 -37 28 -14 77 -36 110 -50 33
-14 83 -41 111 -59 28 -19 54 -34 57 -34 4 0 19 24 33 53 15 28 40 71 55 94
16 23 33 52 39 65 5 13 9 18 9 11 1 -7 -36 -88 -81 -181 -46 -92 -96 -201
-111 -240 -16 -40 -33 -72 -39 -72 -6 0 -32 16 -58 35 -107 79 -277 135 -406
135 -99 0 -102 -16 -4 -24 141 -12 244 -52 384 -150 73 -51 81 -54 97 -40 26
23 84 140 107 214 11 36 48 121 81 190 64 132 70 155 47 198 -36 68 -214 213
-311 253 -60 25 -68 36 -30 41 41 5 34 19 -25 55 -30 18 -56 37 -58 42 -5 14
75 1 135 -21z m2136 -48 c13 -36 28 -82 31 -102 l7 -36 -53 -6 c-29 -4 -113
-7 -187 -9 l-133 -2 -24 37 -23 37 67 22 c66 22 189 80 247 117 17 11 33 17
36 13 4 -3 18 -35 32 -71z m788 39 c144 -41 359 -118 359 -130 0 -3 -11 -12
-25 -19 -22 -12 -33 -9 -112 28 -49 22 -141 56 -205 76 -141 43 -188 62 -188
75 0 17 16 14 171 -30z m1385 -41 c-13 -29 -51 -129 -86 -223 -34 -93 -63
-171 -64 -172 0 0 -107 7 -236 18 -129 10 -251 19 -270 19 -32 0 -23 7 100 81
74 45 187 111 250 147 63 35 121 69 128 75 11 9 191 105 199 107 1 0 -8 -24
-21 -52z m-4491 -59 c52 -14 126 -41 122 -45 -1 -2 -31 6 -66 16 -34 11 -79
20 -99 20 -21 0 -44 5 -52 10 -21 14 43 13 95 -1z m2995 -83 c26 -62 7 -59
-25 4 -29 56 -36 99 -10 63 8 -12 24 -42 35 -67z m-221 -56 c195 -18 377 -65
466 -121 67 -42 54 -52 -21 -18 -82 37 -204 65 -344 78 -104 9 -615 9 -625 -1
-3 -3 120 -8 272 -11 344 -9 519 -26 633 -64 l85 -28 -210 -6 c-249 -8 -288
-13 -595 -79 -145 -31 -594 -107 -767 -130 -51 -7 -93 -17 -93 -21 0 -12 69
-10 217 5 120 12 122 12 125 -9 3 -18 22 -31 98 -65 27 -12 58 -84 76 -174 16
-79 16 -95 3 -159 l-14 -71 -48 -12 c-58 -15 -77 -29 -77 -60 0 -19 -5 -24
-27 -25 -69 -2 -86 -6 -99 -23 -18 -25 -3 -51 44 -75 43 -22 69 -62 88 -135
21 -79 16 -216 -8 -216 -24 0 -68 -43 -68 -65 0 -31 29 -50 105 -66 l60 -13
-64 -13 c-121 -25 -141 -32 -141 -54 0 -12 8 -23 20 -26 11 -3 20 -9 20 -13 0
-5 15 -18 34 -29 39 -24 89 -125 84 -169 -4 -34 -20 -42 -193 -92 -151 -45
-204 -68 -223 -99 -16 -27 1 -52 62 -95 52 -37 55 -36 -189 -76 -104 -17 -233
-42 -285 -55 -97 -24 -267 -38 -276 -23 -3 4 0 8 6 8 6 0 9 4 5 9 -3 5 3 17
12 27 17 17 17 17 -5 12 -13 -4 -20 -2 -16 4 4 5 21 8 39 6 19 -2 31 0 29 4
-3 4 -11 8 -18 8 -6 0 -25 20 -41 45 -16 25 -34 44 -40 41 -7 -2 -18 8 -24 22
-10 23 -9 24 2 10 11 -14 13 -11 12 25 -3 78 -5 88 -15 82 -7 -4 -9 3 -5 22 5
25 5 25 -10 -6 -8 -19 -17 -32 -19 -30 -8 9 -16 60 -9 56 4 -3 14 1 20 9 7 7
9 15 4 19 -5 3 -12 -1 -14 -7 -3 -7 -6 -3 -6 10 -1 14 -5 20 -12 17 -6 -4 -9
0 -7 8 2 9 -1 17 -7 19 -35 11 2 -234 57 -370 11 -29 18 -55 16 -58 -17 -16
-108 128 -108 172 0 17 -2 17 -70 -1 -79 -21 -120 -20 -120 4 0 14 9 20 39 24
51 6 131 37 131 49 0 6 -33 7 -85 3 -72 -6 -85 -5 -85 8 0 11 17 17 67 22 80
8 93 13 93 31 0 11 -19 14 -85 14 -77 0 -85 2 -85 19 0 15 12 20 72 29 39 6
75 9 80 6 4 -3 8 6 8 19 0 23 -2 24 -77 23 -66 -1 -78 2 -81 17 -3 15 6 17 72
17 69 0 76 2 76 20 0 16 -7 20 -32 20 -71 0 -108 12 -108 33 0 18 5 19 70 15
61 -4 72 -3 80 13 13 23 7 25 -60 28 -63 3 -63 3 -54 24 5 13 15 15 52 10 72
-10 74 -9 82 13 8 20 4 22 -43 29 l-52 6 28 25 c26 22 44 28 73 25 5 0 16 14
23 32 8 19 23 40 34 47 23 14 293 100 315 100 10 0 12 -8 7 -32 -9 -39 -10
-40 -100 -74 -38 -15 -86 -34 -105 -42 l-35 -16 27 -3 c15 -3 63 7 107 21 45
14 129 30 188 36 119 11 342 14 367 4 37 -14 11 -33 -91 -67 -160 -53 -351
-79 -418 -57 -25 8 -62 10 -111 5 l-74 -7 6 -41 c24 -174 67 -376 100 -480 13
-38 19 -46 29 -37 10 8 15 8 20 -1 4 -6 10 -7 14 -2 22 32 161 83 226 83 36
-1 -22 -37 -107 -67 -43 -16 -78 -31 -78 -36 0 -11 47 2 115 33 77 34 356 221
389 260 37 44 76 128 75 158 -1 15 5 41 11 58 16 38 7 80 -21 94 -18 10 -130
-2 -239 -27 -19 -4 -22 -3 -14 6 6 7 55 26 110 44 96 31 99 33 102 64 3 27 -1
33 -20 38 -41 10 -249 21 -254 13 -3 -5 -14 -8 -25 -8 -25 0 -25 18 1 190 42
280 60 410 75 560 14 144 50 419 60 465 4 18 19 23 117 37 62 10 212 35 333
57 121 22 288 45 370 52 225 18 594 16 750 -4 152 -20 156 -20 132 -6 -69 40
-522 61 -852 40 -197 -12 -184 -11 -505 -70 -124 -24 -257 -45 -297 -48 l-72
-6 -10 -51 c-9 -45 -33 -209 -46 -321 -3 -22 -12 -119 -20 -215 -9 -96 -29
-269 -46 -385 -17 -115 -33 -229 -36 -252 -5 -38 -8 -42 -34 -41 -17 1 -29 7
-29 14 0 45 45 352 70 479 17 83 50 285 74 450 25 165 48 315 51 333 5 19 4
32 -3 32 -5 0 -18 -52 -28 -115 -10 -63 -19 -113 -22 -111 -6 7 20 230 29 240
4 5 99 22 210 37 192 27 248 39 183 39 -89 0 -407 -40 -420 -52 -2 -3 -20
-158 -39 -344 -19 -186 -48 -431 -64 -544 -16 -113 -34 -257 -41 -320 -13
-119 -24 -160 -42 -142 -10 10 -2 98 31 322 41 273 114 873 124 1020 l2 35
205 27 c113 15 302 34 420 43 118 9 229 20 245 25 l30 8 -32 1 c-18 1 -88 -4
-157 -10 -164 -14 -467 -26 -458 -18 7 6 378 46 487 52 129 8 622 6 724 -3z
m981 -14 c0 -2 -8 -10 -17 -17 -16 -13 -17 -12 -4 4 13 16 21 21 21 13z m1355
-36 c-10 -11 -20 -18 -23 -15 -7 6 18 35 31 35 5 0 2 -9 -8 -20z m-4724 -17
l24 -26 -27 19 c-15 10 -28 22 -28 27 0 12 5 8 31 -20z m79 -93 c0 -5 -5 -10
-11 -10 -5 0 -7 5 -4 10 3 6 8 10 11 10 2 0 4 -4 4 -10z m-1157 -16 c8 -8 -3
-34 -14 -34 -5 0 -9 9 -9 20 0 19 11 26 23 14z m6216 -162 c79 -184 145 -379
176 -517 31 -140 65 -360 65 -426 l0 -46 -70 69 -71 69 -14 125 c-27 227 -70
384 -165 598 l-53 119 34 68 c19 37 36 68 39 68 3 1 29 -56 59 -127z m-1592
112 c-3 -3 -12 -4 -19 -1 -8 3 -5 6 6 6 11 1 17 -2 13 -5z m234 -19 c79 -9
149 -18 154 -20 17 -8 -186 6 -285 20 -137 18 -44 18 131 0z m-483 -20 c24 -4
41 -9 39 -12 -9 -8 -117 9 -117 19 0 5 8 7 18 4 9 -2 36 -8 60 -11z m-251 -1
c-3 -3 -12 -4 -19 -1 -8 3 -5 6 6 6 11 1 17 -2 13 -5z m151 -13 c8 -5 -19 -12
-70 -19 -154 -21 -203 -24 -228 -13 -20 8 -10 10 55 11 66 1 113 7 225 29 3 0
11 -3 18 -8z m212 -11 c11 -7 6 -10 -20 -10 -19 0 -71 -9 -115 -19 -160 -38
-222 -44 -304 -31 -126 20 -183 31 -177 37 2 3 27 0 54 -6 138 -29 239 -25
427 18 95 22 115 24 135 11z m89 -14 c-2 -3 -54 -19 -114 -36 -164 -46 -285
-64 -382 -57 -91 7 -236 42 -252 61 -6 7 22 1 62 -13 65 -23 87 -26 222 -26
137 0 161 3 274 32 68 18 126 35 129 38 3 3 19 5 35 5 17 0 28 -2 26 -4z m738
-22 c-3 -3 -12 -4 -19 -1 -8 3 -5 6 6 6 11 1 17 -2 13 -5z m-40 -10 c-3 -3
-12 -4 -19 -1 -8 3 -5 6 6 6 11 1 17 -2 13 -5z m-40 -10 c-3 -3 -12 -4 -19 -1
-8 3 -5 6 6 6 11 1 17 -2 13 -5z m124 -83 c20 -34 39 -65 42 -67 3 -3 66 13
139 35 142 43 158 47 158 32 0 -5 -26 -17 -57 -26 -32 -9 -121 -36 -198 -60
-141 -45 -356 -105 -517 -146 -76 -18 -88 -24 -89 -43 0 -11 -11 11 -23 49
-23 71 -50 124 -73 138 -21 13 -16 29 6 18 21 -12 71 -91 71 -113 0 -8 6 -22
13 -31 11 -14 21 -13 122 13 61 17 148 39 195 51 47 12 89 25 93 29 10 9 -23
79 -59 127 -28 37 -31 51 -7 32 26 -22 83 -116 83 -139 0 -23 1 -24 34 -9 l24
11 -30 52 c-17 28 -39 63 -50 79 -15 21 -16 27 -5 27 15 0 87 -111 87 -134 0
-21 11 -25 35 -14 l23 10 -34 62 c-19 33 -38 60 -44 59 -5 -2 -7 4 -3 13 9 25
26 11 64 -55z m-5417 33 c8 -3 12 -12 9 -20 -8 -21 -29 -17 -29 6 0 11 1 20 2
20 1 0 9 -3 18 -6z m6250 -369 c34 -109 76 -327 76 -390 0 -29 -3 -32 -22 -27
-12 3 -34 20 -50 38 -56 64 -190 86 -279 47 -95 -42 -149 -113 -184 -243 -21
-77 -41 -120 -56 -120 -6 0 -8 7 -5 16 3 8 11 54 17 102 10 73 9 99 -4 166
-16 78 -67 200 -107 256 l-20 28 42 16 c24 9 67 25 96 35 55 19 68 32 113 114
l26 48 12 -45 c6 -25 11 -53 11 -62 0 -9 11 -32 25 -50 29 -38 55 -105 55
-141 0 -20 4 -23 22 -18 11 4 38 7 60 7 36 -1 38 1 32 26 -14 65 -60 193 -100
280 -46 98 -46 109 -7 145 19 16 21 14 71 -91 56 -117 88 -213 122 -367 24
-104 33 -126 49 -109 24 24 -73 383 -148 548 -18 39 -30 79 -28 90 2 15 7 8
16 -23 16 -57 27 -45 12 14 -9 34 -9 51 0 67 10 19 17 7 66 -113 30 -74 69
-183 87 -244z m-3399 345 c55 -10 91 -18 80 -19 -23 -1 -198 28 -204 35 -7 7
20 4 124 -16z m139 -100 c165 -22 402 -61 421 -70 31 -14 241 -41 260 -33 13
5 16 3 10 -6 -6 -10 2 -12 36 -8 24 3 35 3 24 0 -15 -4 -11 -8 20 -18 54 -18
291 -69 445 -95 113 -20 152 -32 139 -44 -4 -4 -724 86 -799 99 -24 5 -32 3
-25 -4 10 -10 149 -33 589 -96 131 -19 241 -37 244 -40 14 -14 -13 -15 -91 -5
-47 7 -96 10 -109 8 -12 -2 18 -10 67 -17 133 -18 145 -21 145 -37 0 -9 -8
-12 -27 -9 -16 3 -129 18 -253 35 -124 17 -252 35 -286 40 -72 12 -87 12 -57
0 44 -18 240 -51 536 -90 48 -7 90 -17 94 -23 6 -10 -42 -8 -222 13 -44 5
-114 9 -156 9 -41 1 -160 12 -264 26 -187 24 -233 26 -159 6 51 -13 704 -121
735 -121 26 0 57 -16 48 -24 -6 -6 -362 38 -451 55 -31 6 -62 9 -68 7 -11 -3
168 -37 398 -74 73 -12 102 -21 102 -31 0 -9 -7 -12 -17 -9 -10 3 -45 8 -78
11 -33 4 -127 17 -210 30 -82 13 -188 29 -235 35 -47 6 -130 20 -185 30 -109
21 -314 45 -321 38 -2 -3 42 -10 98 -17 57 -7 175 -25 263 -41 88 -15 266 -45
395 -65 129 -20 239 -41 245 -46 19 -18 -70 -8 -357 40 -284 48 -941 146
-1043 155 -27 3 -52 5 -55 6 -3 0 5 9 17 19 31 26 43 62 43 129 0 54 -28 207
-44 244 -7 15 -4 16 25 8 17 -5 68 -14 113 -20z m1626 6 c0 -3 -4 -8 -10 -11
-5 -3 -10 -1 -10 4 0 6 5 11 10 11 6 0 10 -2 10 -4z m145 -30 c14 -18 38 -57
54 -86 16 -29 30 -47 32 -41 2 6 5 -10 6 -36 3 -83 12 -113 33 -113 11 0 20 5
20 12 0 6 2 9 6 6 3 -3 37 3 77 13 71 18 116 24 105 13 -3 -3 -55 -17 -114
-32 l-109 -27 -7 -79 c-4 -43 -10 -81 -14 -85 -3 -3 -3 21 1 55 14 128 -23
268 -100 375 -19 27 -35 51 -35 54 0 15 22 1 45 -29z m-5210 -72 c-61 -151
-92 -408 -82 -679 19 -517 204 -972 540 -1322 154 -161 354 -287 554 -349 80
-25 84 -28 62 -39 -38 -20 -239 -57 -273 -51 -68 13 -242 148 -354 276 -98
111 -203 270 -263 397 -26 57 -50 103 -53 103 -3 0 6 -33 20 -72 40 -116 139
-306 204 -393 77 -103 214 -242 288 -291 31 -21 60 -41 64 -44 9 -6 -158 -2
-189 5 -29 7 -188 192 -265 309 -118 179 -253 491 -312 721 -86 336 -99 735
-36 1127 28 171 107 432 118 386 2 -10 -8 -47 -23 -84z m5265 30 c12 -19 21
-37 18 -39 -2 -2 -14 14 -26 36 -28 49 -22 52 8 3z m957 -5 c-8 -5 -75 -28
-148 -51 -74 -23 -137 -46 -141 -52 -6 -7 -11 -6 -17 4 -6 8 -9 16 -7 17 1 1
56 18 122 37 66 19 136 41 155 49 35 14 64 11 36 -4z m-1340 -116 c20 -40 38
-73 39 -73 2 0 45 15 96 34 135 50 195 69 210 64 7 -3 -29 -17 -80 -33 -51
-15 -90 -30 -88 -32 2 -3 34 5 71 16 37 12 75 21 84 20 9 0 -20 -11 -64 -24
-44 -14 -88 -22 -99 -19 -13 5 -16 3 -11 -7 6 -9 3 -11 -8 -6 -10 3 -17 3 -17
-2 0 -5 -22 -11 -50 -15 -27 -4 -50 -10 -50 -14 0 -4 7 -27 16 -52 11 -32 14
-64 11 -110 -10 -119 -22 -114 -23 8 0 102 -4 126 -27 186 -15 38 -43 91 -62
117 -41 58 -45 72 -9 38 14 -13 41 -56 61 -96z m-54 -12 c34 -61 57 -151 57
-217 0 -61 -32 -172 -60 -206 -16 -19 -15 -14 5 27 37 77 51 174 37 245 -16
75 -45 142 -90 205 -36 50 -36 50 -5 22 17 -16 42 -50 56 -76z m-4747 -47 l37
-129 2 -265 c1 -302 3 -315 99 -646 64 -220 122 -370 207 -533 65 -126 114
-198 214 -308 36 -39 65 -74 65 -78 0 -3 -15 4 -32 16 -184 129 -348 365 -504
727 -26 63 -50 110 -52 104 -8 -25 129 -374 190 -479 16 -29 27 -53 24 -53 -2
0 -28 35 -56 78 -141 210 -252 530 -295 847 -15 106 -17 170 -12 350 4 121 13
256 21 301 13 78 47 206 53 200 1 -1 19 -60 39 -132z m5802 111 c-3 -3 -9 2
-12 12 -6 14 -5 15 5 6 7 -7 10 -15 7 -18z m-1368 -25 c197 -28 260 -43 247
-56 -10 -10 -534 80 -547 94 -6 5 -10 6 300 -38z m1298 18 c16 -16 15 -62 -3
-150 -18 -84 -24 -103 -30 -96 -3 3 1 31 10 64 20 77 20 160 0 168 -8 3 -15
10 -15 16 0 14 23 13 38 -2z m52 -8 c0 -5 -4 -10 -10 -10 -5 0 -10 5 -10 10 0
6 5 10 10 10 6 0 10 -4 10 -10z m-101 -9 c9 -6 0 -10 -29 -13 -44 -4 -66 8
-28 15 38 7 42 7 57 -2z m118 -53 c-2 -13 -4 -5 -4 17 -1 22 1 32 4 23 2 -10
2 -28 0 -40z m-4771 -27 c159 -74 250 -182 315 -370 28 -81 23 -89 -23 -37
-55 63 -126 115 -229 166 -88 44 -90 44 -21 -9 24 -19 41 -35 39 -38 -3 -2
-79 7 -169 21 -198 31 -218 32 -301 6 -51 -16 -77 -31 -113 -67 -38 -39 -45
-43 -39 -23 46 149 140 229 285 238 51 3 68 8 55 13 -31 12 -178 10 -214 -2
-46 -16 -51 -2 -11 33 40 34 95 65 160 91 71 28 179 19 266 -22z m5049 9 c3
-5 1 -10 -4 -10 -6 0 -11 5 -11 10 0 6 2 10 4 10 3 0 8 -4 11 -10z m-290 -74
c-4 -31 -12 -56 -17 -56 -6 0 -8 6 -5 14 3 7 9 34 12 60 10 66 18 50 10 -18z
m-5445 34 c0 -12 7 -20 17 -20 14 0 15 -2 1 -17 -8 -10 -19 -27 -23 -38 -8
-19 -9 -19 -13 3 -2 13 -10 26 -18 29 -19 7 -18 23 1 23 8 0 15 9 15 20 0 11
5 20 10 20 6 0 10 -9 10 -20z m4840 -60 c-21 -14 -232 -82 -237 -76 -4 4 220
83 242 85 6 0 3 -4 -5 -9z m-591 -101 c73 -10 136 -20 139 -23 15 -15 -16 -14
-150 4 -156 21 -226 34 -236 45 -8 8 47 2 247 -26z m1264 -113 c29 -62 47
-147 46 -220 0 -43 -3 -35 -19 55 -11 58 -30 132 -45 164 -28 63 -29 69 -16
61 5 -3 20 -30 34 -60z m168 -25 c16 -41 22 -84 24 -161 2 -89 2 -93 -4 -30
-7 92 -13 102 -47 90 -43 -17 -51 -12 -74 53 -13 34 -25 68 -28 76 -8 22 70 6
90 -19 21 -26 22 -24 7 19 -11 31 -14 32 -58 31 -64 -2 -71 -1 -71 10 0 5 26
10 58 12 67 3 73 -1 103 -81z m-5940 -344 c-23 -23 -27 360 -4 396 4 7 9 -78
11 -187 1 -114 -2 -204 -7 -209z m2986 392 c17 -5 252 -55 523 -109 271 -54
497 -103 501 -107 5 -5 -85 10 -199 33 -114 23 -322 65 -462 93 -332 66 -399
81 -406 92 -7 12 6 11 43 -2z m2724 -88 c27 -84 36 -240 19 -332 -6 -38 -16
-69 -21 -69 -5 0 -3 12 3 28 6 15 11 84 11 157 1 130 -7 170 -58 290 -8 18 -7
18 8 6 9 -7 26 -43 38 -80z m-197 32 c30 -95 39 -172 33 -286 -4 -62 -11 -128
-16 -147 -8 -27 -8 -22 -3 25 17 144 -3 343 -43 438 -4 10 -3 17 3 17 6 0 17
-21 26 -47z m-4794 30 l33 -6 -26 -21 -26 -21 132 0 c119 0 136 -2 177 -24 43
-22 100 -68 100 -80 0 -3 -28 -6 -63 -7 -88 0 -273 -64 -342 -118 -13 -10 2
-7 43 9 85 32 217 65 264 65 49 0 128 -19 128 -31 0 -5 -3 -9 -7 -9 -50 -1
-271 -55 -261 -65 1 -2 35 3 73 11 125 24 425 14 425 -15 0 -4 -24 -15 -54
-24 -100 -32 -276 -184 -320 -277 -31 -65 -29 -260 2 -379 13 -46 21 -85 19
-88 -8 -7 -54 102 -87 202 -17 55 -38 138 -45 185 l-13 85 -1 -105 c-1 -110
19 -223 58 -333 28 -82 3 -57 -48 46 -37 77 -61 165 -89 337 -9 52 -10 50 -11
-46 -1 -67 6 -135 19 -199 23 -112 22 -105 12 -105 -15 0 -92 127 -112 185
-23 66 -38 186 -33 255 5 76 -16 10 -26 -79 -8 -76 -1 -180 18 -248 20 -71 3
-43 -38 60 -44 112 -80 250 -82 307 0 19 -5 44 -10 55 -10 21 -3 -235 8 -290
10 -51 -13 -16 -36 54 -34 104 -54 271 -49 401 5 102 4 111 -7 79 -39 -111
-44 -345 -10 -469 18 -68 18 -72 -2 -36 -60 112 -86 262 -72 423 16 184 64
252 218 308 41 15 93 18 141 8z m4938 -15 c-5 -15 -88 -24 -88 -9 0 10 26 17
68 20 15 0 22 -4 20 -11z m-5601 -40 c14 -27 17 -61 18 -198 0 -113 -4 -180
-14 -213 -12 -42 -16 -46 -24 -31 -15 26 -21 200 -12 348 4 69 9 126 11 126 2
0 11 -15 21 -32z m5289 -71 c28 -115 10 -426 -23 -393 -3 3 0 12 7 21 8 9 14
65 17 157 5 136 -2 203 -32 293 -5 16 -5 17 4 5 5 -8 17 -45 27 -83z m67 86
c-19 -7 -16 -23 4 -23 9 0 13 -3 10 -7 -4 -3 -2 -11 3 -18 7 -8 4 -11 -12 -10
-37 3 -52 65 -15 64 12 0 16 -3 10 -6z m-2098 -89 c61 -12 97 -23 80 -24 -21
-1 -10 -6 35 -16 170 -36 314 -67 405 -89 55 -13 135 -29 178 -36 49 -7 81
-17 84 -26 3 -8 4 -16 1 -18 -4 -4 -267 29 -323 41 -16 4 -27 3 -24 0 5 -5
333 -64 367 -66 1 0 2 -7 2 -16 0 -12 -6 -15 -22 -11 -13 4 -101 20 -197 37
-96 17 -193 35 -215 40 -23 5 -50 9 -61 9 -46 0 15 -18 145 -43 281 -54 344
-69 358 -83 8 -7 11 -17 8 -20 -8 -8 -136 9 -314 43 -73 14 -141 24 -150 22
-25 -5 130 -42 311 -74 105 -19 157 -32 157 -41 0 -8 -9 -11 -27 -8 -144 25
-212 35 -233 34 -14 -1 7 -8 45 -15 195 -40 215 -46 215 -60 0 -18 14 -20
-200 21 -309 59 -575 115 -791 166 l-96 23 -1 75 c-1 67 -15 143 -36 193 -7
14 5 13 91 -9 54 -14 148 -36 208 -49z m1970 16 c9 -15 -2 -17 -193 -45 -192
-28 -198 -28 -188 -17 4 4 85 21 179 38 207 38 194 36 202 24z m178 -25 c17
-17 32 -73 23 -83 -4 -3 -9 4 -13 16 -4 17 -13 22 -39 22 -29 0 -34 3 -34 23
0 13 3 27 7 30 11 12 41 8 56 -8z m1000 -18 c34 -14 46 -24 42 -35 -4 -10 -1
-12 12 -7 77 32 137 19 194 -42 72 -78 102 -177 79 -263 -33 -128 -181 -248
-277 -224 -27 7 -27 7 12 21 88 30 151 88 182 168 18 47 16 145 -5 184 -21 42
-76 87 -117 97 l-30 7 36 -40 c49 -54 62 -99 57 -193 -7 -120 -63 -199 -155
-216 -54 -10 -142 22 -189 70 -68 67 -71 141 -10 202 85 85 216 48 216 -61 0
-44 -44 -95 -84 -95 -26 0 -66 41 -66 68 0 24 41 62 66 62 13 0 26 5 29 10 8
13 -50 13 -74 0 -10 -5 -24 -23 -31 -40 -31 -76 51 -136 130 -95 63 32 79 104
37 166 -45 66 -158 75 -236 18 -68 -49 -89 -119 -61 -203 22 -68 131 -140 244
-161 34 -7 36 -9 31 -39 -29 -183 -40 -232 -66 -310 -51 -154 -69 -155 -69 -6
0 89 4 123 24 182 13 40 26 89 28 108 3 35 3 35 -34 32 -62 -6 -151 51 -194
123 -42 72 -55 175 -38 303 16 118 39 165 101 203 70 43 126 45 216 6z m-2055
-9 c6 -6 12 -15 12 -20 0 -7 -5 -6 -13 0 -9 8 -33 8 -83 0 -79 -12 -90 -19
-75 -45 6 -10 11 -13 11 -7 0 13 66 34 108 34 18 0 32 -6 36 -16 9 -22 -1 -34
-30 -34 -13 0 -24 -4 -24 -10 0 -5 13 -10 29 -10 30 0 41 -18 41 -71 0 -23 -5
-27 -37 -33 -87 -14 -86 -14 -123 80 -18 47 -43 100 -55 118 l-21 31 105 -3
c59 -2 112 -8 119 -14z m1239 16 c-3 -3 -12 -4 -19 -1 -8 3 -5 6 6 6 11 1 17
-2 13 -5z m200 -16 c-3 -8 -6 -5 -6 6 -1 11 2 17 5 13 3 -3 4 -12 1 -19z m68
12 c-28 -12 -45 -12 -45 0 0 6 15 10 33 9 27 0 29 -2 12 -9z m-2442 -7 c-7 -2
-19 -2 -25 0 -7 3 -2 5 12 5 14 0 19 -2 13 -5z m647 -50 c54 -75 91 -192 88
-281 0 -37 -3 -51 -5 -32 -17 163 -50 262 -112 333 -18 20 -28 37 -23 37 6 0
29 -26 52 -57z m744 -43 l6 -45 -14 45 c-7 25 -15 59 -19 75 l-6 30 13 -30 c8
-16 16 -50 20 -75z m836 80 c0 -18 -7 -20 -56 -20 -40 0 -55 4 -52 13 4 10 36
19 96 26 6 0 12 -8 12 -19z m-2167 3 c-7 -2 -19 -2 -25 0 -7 3 -2 5 12 5 14 0
19 -2 13 -5z m930 -48 c9 -25 23 -91 33 -147 14 -85 15 -114 6 -173 -13 -78
-27 -133 -41 -155 -19 -29 -19 -4 0 52 38 115 32 281 -17 436 -17 56 0 45 19
-13z m-850 38 c-7 -2 -19 -2 -25 0 -7 3 -2 5 12 5 14 0 19 -2 13 -5z m267 -44
c91 -17 174 -35 185 -39 68 -28 -154 9 -360 60 -108 27 -33 18 175 -21z m782
-16 c18 -79 18 -361 0 -388 -12 -18 -13 -16 -8 20 18 137 18 173 -3 287 -24
134 -24 138 -12 138 5 0 16 -26 23 -57z m108 23 c0 -4 -7 -5 -16 -2 -8 3 -12
2 -9 -4 3 -6 2 -10 -4 -10 -20 0 -24 23 -6 37 15 10 20 10 27 0 4 -6 8 -16 8
-21z m1087 -33 c-3 -10 -5 -4 -5 12 0 17 2 24 5 18 2 -7 2 -21 0 -30z m-1648
-3 c11 -24 11 -24 -3 -6 -9 11 -16 24 -16 30 0 12 5 7 19 -24z m1251 10 c0 -5
-7 -10 -16 -10 -8 0 -12 5 -9 10 3 6 10 10 16 10 5 0 9 -4 9 -10z m480 -29 c0
-34 -23 -61 -51 -61 -15 0 -19 7 -19 39 0 40 7 47 53 50 12 1 17 -7 17 -28z
m-1160 4 c20 -24 3 -57 -28 -53 -27 3 -39 26 -28 54 7 18 40 18 56 -1z m50
-17 c0 -5 -4 -8 -10 -8 -5 0 -10 10 -10 23 0 18 2 19 10 7 5 -8 10 -18 10 -22z
m657 16 c-3 -3 -12 -4 -19 -1 -8 3 -5 6 6 6 11 1 17 -2 13 -5z m-389 -21 c-10
-2 -26 -2 -35 0 -10 3 -2 5 17 5 19 0 27 -2 18 -5z m-75 -10 c-7 -2 -21 -2
-30 0 -10 3 -4 5 12 5 17 0 24 -2 18 -5z m425 -13 c-9 -13 -16 -16 -23 -9 -7
7 -5 13 5 19 24 15 31 11 18 -10z m402 -107 c-9 -15 -10 -12 -6 16 3 18 7 52
8 75 1 32 3 28 5 -16 2 -32 -1 -66 -7 -75z m-345 107 c3 -5 1 -19 -5 -30 -10
-18 -14 -19 -27 -8 -15 12 -15 13 0 16 9 2 14 9 10 18 -6 16 12 20 22 4z
m-628 -57 c-3 -10 -5 -4 -5 12 0 17 2 24 5 18 2 -7 2 -21 0 -30z m-3310 11
c42 -8 106 -26 141 -40 35 -13 75 -24 88 -24 36 0 29 -15 -14 -28 -37 -11
-141 -108 -185 -172 -13 -19 -15 -20 -10 -5 3 11 12 27 20 36 13 15 7 17 -64
24 -83 7 -160 24 -260 56 l-62 20 -35 -38 c-20 -21 -36 -41 -36 -44 0 -9 201
-66 310 -88 63 -13 99 -16 107 -10 8 7 7 -5 -3 -38 -36 -117 -27 -333 18 -433
29 -65 30 -80 8 -80 -33 0 -100 91 -171 235 -44 87 -68 127 -65 106 11 -65 19
-171 13 -171 -13 0 -59 103 -78 174 l-19 71 4 -110 c2 -60 11 -132 19 -158 15
-48 15 -48 -3 -32 -25 23 -96 160 -131 254 -25 68 -28 72 -29 40 0 -51 32
-170 74 -268 20 -47 34 -86 32 -88 -7 -7 -76 94 -96 139 -48 110 -69 308 -40
393 19 58 85 158 130 199 69 62 130 86 243 95 10 0 52 -6 94 -15z m1543 -15
c121 -30 558 -122 680 -143 172 -30 331 -66 344 -78 19 -16 -3 -19 -65 -8
-113 19 -851 179 -938 203 -47 13 -87 29 -89 37 -3 9 0 11 14 5 11 -4 35 -11
54 -16z m-2921 -167 c20 -79 21 -87 6 -144 -9 -37 -15 -107 -15 -186 l-1 -127
-23 57 c-41 98 -69 234 -70 338 0 103 11 155 46 210 l22 35 7 -50 c3 -27 16
-88 28 -133z m5267 141 c-7 -7 -26 7 -26 19 0 6 6 6 15 -2 9 -7 13 -15 11 -17z
m-2368 -29 c29 -10 50 -19 48 -22 -8 -7 -155 29 -162 40 -8 13 34 6 114 -18z
m2703 -7 c-10 -9 -11 -8 -5 6 3 10 9 15 12 12 3 -3 0 -11 -7 -18z m-1524 -54
c-2 -16 -4 -5 -4 22 0 28 2 40 4 28 2 -13 2 -35 0 -50z m573 -94 c-9 -21 -10
-19 -5 16 2 22 6 63 7 90 2 44 2 42 5 -16 2 -36 -1 -76 -7 -90z m577 104 c-3
-10 -5 -4 -5 12 0 17 2 24 5 18 2 -7 2 -21 0 -30z m-650 -9 c2 -5 -6 -10 -17
-10 -20 0 -25 7 -13 20 9 8 26 3 30 -10z m1211 -18 c19 -39 27 -172 13 -223
-13 -49 -31 -57 -32 -15 l-1 27 -8 -25 c-5 -17 -8 3 -9 61 -1 51 -8 108 -18
139 -14 44 -15 53 -2 61 23 14 43 6 57 -25z m-87 -12 c5 -15 12 -54 14 -88 l4
-61 -9 60 c-6 33 -19 72 -30 87 -17 23 -18 28 -5 28 8 0 20 -12 26 -26z
m-1476 -21 c-10 -53 -22 -65 -64 -61 -34 3 -36 5 -39 42 -4 47 7 56 67 56 l43
0 -7 -37z m1432 11 c-3 -3 -12 -4 -19 -1 -8 3 -5 6 6 6 11 1 17 -2 13 -5z
m-182 -102 l5 -57 -14 60 c-8 33 -15 69 -15 80 0 41 19 -25 24 -83z m-118 46
c-3 -7 -5 -2 -5 12 0 14 2 19 5 13 2 -7 2 -19 0 -25z m67 -2 c8 -19 17 -65 20
-103 3 -37 3 -61 0 -53 -3 8 -8 22 -11 30 -4 8 -5 21 -4 29 1 7 -1 20 -5 30
-4 9 -8 26 -9 39 -1 12 -10 31 -20 42 -16 18 -16 20 -2 20 10 0 23 -15 31 -34z
m-104 -57 c13 -76 7 -158 -16 -217 l-14 -37 8 35 c9 47 9 215 -1 263 -5 25 -5
37 1 33 6 -3 16 -38 22 -77z m-2197 54 c-7 -2 -21 -2 -30 0 -10 3 -4 5 12 5
17 0 24 -2 18 -5z m-646 -29 c22 -59 -125 -100 -472 -133 -214 -21 -218 -20
-213 29 4 32 51 46 218 65 69 8 150 19 180 26 58 11 179 25 243 28 27 1 39 -4
44 -15z m2919 -3 c-3 -4 -1 -25 5 -46 8 -26 7 -41 0 -48 -8 -8 -11 -4 -11 14
0 13 -3 42 -7 63 -4 29 -3 37 6 32 6 -4 9 -11 7 -15z m280 9 c-39 -12 -142
-24 -135 -16 9 9 87 24 129 24 35 0 35 0 6 -8z m-4296 -10 c0 -5 -5 -10 -11
-10 -5 0 -7 5 -4 10 3 6 8 10 11 10 2 0 4 -4 4 -10z m5225 -200 c-31 -216
-108 -498 -172 -623 l-24 -49 -25 50 -25 50 30 93 c54 169 111 435 111 514 0
22 9 40 31 61 17 16 43 49 57 74 l27 45 3 -50 c2 -27 -4 -102 -13 -165z
m-3726 184 c10 -9 -35 -3 -49 6 -11 8 -7 9 15 4 17 -4 32 -8 34 -10z m81 -14
c12 -8 11 -10 -5 -9 -11 1 -31 5 -45 9 -24 8 -24 8 5 9 17 0 37 -4 45 -9z
m2410 -6 c0 -8 -4 -12 -10 -9 -5 3 -10 10 -10 16 0 5 5 9 10 9 6 0 10 -7 10
-16z m320 7 c0 -15 -10 -18 -80 -26 -105 -12 -54 12 73 34 4 0 7 -3 7 -8z
m-1102 -40 c3 -8 -1 -12 -9 -9 -7 2 -15 10 -17 17 -3 8 1 12 9 9 7 -2 15 -10
17 -17z m64 -17 c12 -44 18 -194 7 -194 -5 0 -9 21 -9 48 0 42 -5 71 -26 160
-7 35 18 22 28 -14z m-112 4 c0 -33 22 -88 35 -88 17 0 20 36 4 46 -8 4 -8 9
0 17 14 14 17 9 26 -30 6 -29 4 -34 -20 -43 -25 -9 -27 -14 -22 -47 4 -20 3
-32 -2 -27 -4 5 -13 41 -20 80 -6 40 -14 79 -17 88 -3 9 -1 16 5 16 6 0 11 -6
11 -12z m-1542 -23 c100 -18 578 -90 752 -112 75 -10 134 -22 133 -28 -1 -5 4
-16 10 -24 10 -12 1 -13 -63 -7 -41 4 -122 16 -180 26 -58 11 -188 33 -290 50
-203 33 -253 43 -350 70 -98 28 -127 33 -115 21 15 -14 188 -55 360 -85 322
-55 384 -67 500 -90 134 -27 155 -34 155 -48 0 -6 -6 -8 -14 -5 -27 10 -276
49 -288 45 -7 -3 34 -12 92 -21 58 -9 127 -23 154 -29 56 -15 73 -38 29 -39
l-28 -1 28 -10 c28 -10 38 -38 13 -38 -7 0 -37 5 -66 10 -29 6 -55 8 -57 6 -3
-2 22 -9 54 -16 82 -16 88 -19 75 -32 -8 -8 -58 -2 -184 20 -95 17 -209 36
-253 42 -72 9 -207 32 -445 76 -47 8 -103 20 -125 26 -34 9 -37 12 -20 18 19
8 19 8 -5 18 -25 11 -25 11 -3 18 28 8 33 42 16 109 -7 28 -13 52 -13 54 0 2
11 0 25 -3 14 -4 60 -13 103 -21z m1496 -35 c16 -56 24 -215 12 -228 -3 -3 -6
24 -6 59 0 59 -19 170 -35 212 -4 9 -3 17 3 17 5 0 17 -27 26 -60z m456 34
c-74 -13 -153 -26 -174 -30 -48 -9 -42 11 7 22 65 14 203 32 252 32 36 0 13
-7 -85 -24z m-2490 -4 c0 -25 -25 -41 -135 -83 -106 -40 -148 -50 -317 -77
-167 -26 -165 -26 -173 11 -4 17 -3 35 1 39 5 4 89 17 188 28 148 17 188 25
234 48 70 34 128 52 170 53 25 1 32 -3 32 -19z m2907 -22 c-3 -7 -5 -2 -5 12
0 14 2 19 5 13 2 -7 2 -19 0 -25z m-5161 -119 c29 -36 79 -89 109 -118 48 -45
54 -55 43 -69 -9 -10 -13 -47 -13 -107 0 -91 1 -94 50 -191 63 -125 149 -216
246 -261 64 -31 207 -65 322 -79 l58 -6 -23 -25 c-12 -13 -37 -33 -54 -43
l-31 -19 -94 33 c-123 43 -161 63 -257 136 -91 69 -145 125 -210 222 -24 37
-48 65 -53 62 -5 -3 -6 1 -3 9 3 8 -2 14 -11 14 -18 0 -18 0 -2 -40 8 -18 12
-38 10 -44 -3 -7 3 -13 14 -13 15 0 15 -2 3 -10 -20 -12 -31 -1 -78 78 -80
135 -122 316 -122 518 l1 99 21 -40 c11 -22 45 -70 74 -106z m2051 125 c-3 -3
-12 -4 -19 -1 -8 3 -5 6 6 6 11 1 17 -2 13 -5z m3193 -38 c0 -18 -21 -88 -25
-84 -2 2 0 19 4 38 9 41 5 60 -15 60 -8 0 -14 7 -14 15 0 14 3 13 25 -1 14 -9
25 -21 25 -28z m-3283 28 c-3 -3 -12 -4 -19 -1 -8 3 -5 6 6 6 11 1 17 -2 13
-5z m2883 2 c0 -8 -261 -67 -278 -63 -28 7 29 25 142 46 106 20 136 24 136 17z
m-3000 -16 c0 -5 -8 -10 -17 -10 -15 0 -16 2 -3 10 19 12 20 12 20 0z m58 3
c-10 -2 -26 -2 -35 0 -10 3 -2 5 17 5 19 0 27 -2 18 -5z m4328 -136 c-9 -56
-37 -180 -63 -275 l-46 -173 -26 25 c-15 14 -49 37 -76 50 l-50 24 28 11 c39
15 84 115 138 307 41 146 44 151 73 160 40 12 42 2 22 -129z m-2703 126 c-7
-2 -19 -2 -25 0 -7 3 -2 5 12 5 14 0 19 -2 13 -5z m723 -21 c-3 -6 -63 -24
-134 -40 -161 -38 -192 -43 -192 -33 0 4 46 16 102 25 56 9 104 19 107 21 8 8
-31 5 -114 -10 -100 -18 -105 -18 -105 -1 0 10 19 16 68 21 37 4 110 15 162
25 90 16 120 14 106 -8z m1291 6 c-3 -8 -6 -5 -6 6 -1 11 2 17 5 13 3 -3 4
-12 1 -19z m-1944 5 c-7 -2 -21 -2 -30 0 -10 3 -4 5 12 5 17 0 24 -2 18 -5z
m288 -24 c10 -36 10 -91 0 -85 -4 3 -11 22 -14 43 -3 21 -8 46 -13 57 -5 14
-3 17 7 14 7 -2 16 -15 20 -29z m-141 -8 c13 -25 13 -28 -3 -28 -7 0 -18 11
-24 24 -9 18 -8 23 3 23 7 0 18 -9 24 -19z m103 -41 c18 -65 23 -165 8 -174
-5 -4 -12 0 -14 6 -3 7 -6 -1 -6 -18 -1 -16 -7 -39 -15 -50 -13 -17 -14 -14
-5 26 11 45 6 190 -7 243 -5 20 -3 27 8 27 9 0 21 -22 31 -60z m1357 36 c0 -8
-4 -17 -8 -20 -4 -2 -8 4 -8 15 0 10 4 19 8 19 4 0 8 -6 8 -14z m630 4 c0 -5
-5 -10 -10 -10 -6 0 -29 -9 -53 -19 -23 -11 -84 -32 -135 -47 -73 -21 -91 -31
-88 -43 3 -9 8 -29 11 -46 4 -21 0 -16 -13 15 -21 54 -19 54 -178 7 -102 -31
-109 -34 -107 -57 1 -15 0 -18 -3 -7 -3 9 -12 17 -20 17 -30 0 -196 -41 -364
-91 -96 -28 -190 -55 -208 -61 -25 -7 -32 -14 -28 -25 40 -103 60 -206 60
-303 0 -105 -17 -204 -37 -217 -7 -4 -8 2 -3 18 35 122 -2 509 -48 509 -30 0
-361 -99 -364 -109 -2 -6 -7 -9 -12 -6 -5 3 -64 -11 -132 -31 -183 -55 -185
-55 -244 0 -43 40 -45 45 -20 36 16 -6 41 -20 57 -31 33 -23 28 -24 284 54
291 89 1002 287 1190 331 105 25 242 63 305 86 116 40 160 48 160 30z m-3630
-8 c0 -27 -159 -135 -229 -156 -108 -32 -302 -69 -310 -60 -5 5 -11 20 -13 33
-4 30 13 36 172 57 119 16 220 48 228 73 4 11 0 12 -14 6 -24 -9 -183 -44
-206 -45 -10 0 -18 4 -18 9 0 5 33 15 73 21 39 7 90 17 112 23 22 6 45 11 50
12 6 0 35 8 65 17 61 19 90 22 90 10z m2213 -6 c6 -16 -2 -28 -14 -20 -12 7
-11 34 0 34 5 0 11 -6 14 -14z m-173 -35 c0 -5 -26 -15 -57 -21 -32 -6 -98
-20 -146 -30 -105 -24 -97 -23 -97 -6 0 10 19 18 53 25 28 6 81 17 117 25 78
17 130 19 130 7z m1534 -69 c29 -89 37 -152 26 -231 -11 -89 -33 -168 -55
-196 -13 -18 -13 -16 -1 21 39 114 44 283 11 404 -18 66 -17 63 -6 55 5 -3 17
-27 25 -53z m-1364 12 c0 -22 -2 -25 -15 -14 -12 10 -13 16 -4 26 16 20 19 18
19 -12z m-510 -56 c0 -64 -11 -56 -16 12 -3 33 -1 49 6 45 5 -3 10 -29 10 -57z
m318 50 c-3 -7 -49 -23 -104 -35 -156 -35 -174 -37 -174 -21 0 9 35 22 108 40
123 29 176 34 170 16z m-2735 -37 c2 -10 1 -25 -4 -32 -5 -8 -9 -9 -10 -4 0 6
-4 1 -9 -10 -6 -14 -7 -9 -5 20 4 47 3 45 14 45 5 0 11 -9 14 -19z m2277 -44
c0 -29 -5 -59 -10 -67 -6 -10 -9 8 -8 57 0 40 5 70 10 67 4 -3 8 -29 8 -57z
m685 13 c-9 -41 -17 -33 -9 9 4 17 9 30 11 27 3 -2 2 -19 -2 -36z m-58 -22
c-3 -7 -5 -2 -5 12 0 14 2 19 5 13 2 -7 2 -19 0 -25z m1148 -32 c8 -31 15 -68
15 -81 0 -13 5 -27 12 -31 8 -5 10 14 6 72 -3 43 -2 68 2 54 14 -43 11 -176
-5 -242 -29 -118 -38 -149 -42 -144 -2 2 1 40 7 85 12 77 2 256 -17 331 -3 14
-3 22 1 19 3 -3 13 -32 21 -63z m-1198 12 c-3 -8 -6 -5 -6 6 -1 11 2 17 5 13
3 -3 4 -12 1 -19z m894 -88 c11 -36 22 -107 26 -160 5 -91 -8 -215 -24 -231
-4 -4 -8 69 -8 164 -1 152 -9 232 -32 307 -4 13 -4 13 6 0 6 -8 20 -44 32 -80z
m36 58 c-3 -8 -6 -5 -6 6 -1 11 2 17 5 13 3 -3 4 -12 1 -19z m-2652 -52 c127
-25 282 -56 345 -70 298 -67 352 -80 343 -83 -8 -3 -173 30 -433 87 -196 43
-328 69 -410 80 -114 15 -130 19 -130 30 0 11 -16 13 285 -44z m718 47 c-7 -2
-21 -2 -30 0 -10 3 -4 5 12 5 17 0 24 -2 18 -5z m196 -18 c74 -8 137 -17 139
-20 16 -16 -44 -13 -169 8 -168 29 -158 33 30 12z m2191 -22 c-1 -24 -2 -26
-11 -10 -5 9 -7 22 -4 27 10 17 15 11 15 -17z m-714 -127 c11 -61 12 -103 4
-184 -5 -58 -12 -108 -15 -111 -3 -3 -5 62 -4 144 1 109 -3 169 -15 218 -19
82 -19 93 1 47 8 -19 22 -71 29 -114z m684 120 c0 -16 -7 -26 -22 -30 -25 -6
-58 18 -44 31 5 5 11 2 13 -4 3 -7 14 -12 26 -12 18 1 19 2 4 6 -14 4 -16 8
-6 19 17 21 29 17 29 -10z m-4364 -3 c-1 -22 -20 -31 -62 -32 -50 -1 -49 12 3
30 61 22 61 22 59 2z m-1004 -75 c71 -149 149 -230 286 -298 114 -56 240 -69
311 -30 19 10 41 59 41 91 0 12 17 27 50 44 27 14 52 25 55 25 3 0 5 -40 5
-90 0 -67 -3 -90 -13 -90 -7 0 -17 4 -23 10 -21 21 -78 -9 -132 -70 l-53 -60
-57 0 c-31 1 -92 7 -135 15 -243 43 -416 240 -417 473 0 60 1 63 23 60 17 -2
31 -22 59 -80z m1225 66 c-3 -3 -12 -4 -19 -1 -8 3 -5 6 6 6 11 1 17 -2 13 -5z
m1183 -80 c124 -25 344 -74 490 -108 314 -76 331 -79 480 -106 155 -29 160
-30 160 -47 0 -10 -8 -13 -32 -9 -18 3 -89 15 -158 26 -69 11 -162 28 -208 37
-138 26 -103 7 55 -30 156 -37 237 -53 316 -63 38 -4 47 -9 45 -22 -4 -20 8
-21 -193 16 -193 37 -247 45 -220 33 11 -4 106 -25 210 -46 105 -21 194 -42
199 -46 22 -19 -7 -19 -100 1 -221 48 -338 70 -348 67 -16 -6 47 -22 244 -62
192 -40 228 -51 213 -66 -6 -6 -83 6 -222 34 -117 25 -209 41 -204 37 4 -4 98
-26 208 -49 240 -51 225 -47 225 -66 0 -20 -19 -19 -110 5 -94 25 -112 24 -40
-1 60 -21 44 -20 -87 5 -120 23 -83 1 50 -29 67 -15 134 -30 150 -32 15 -3 27
-12 27 -19 0 -17 -2 -17 -93 -3 -158 23 -270 50 -442 107 -176 59 -256 81
-244 68 3 -4 60 -22 125 -42 65 -19 164 -50 220 -70 55 -20 174 -50 264 -68
95 -18 165 -37 168 -44 2 -7 -5 -12 -15 -12 -38 0 -331 72 -448 110 -143 46
-283 82 -298 77 -6 -2 18 -11 54 -21 35 -10 125 -36 199 -58 74 -22 216 -61
314 -87 99 -25 181 -52 183 -58 3 -9 -5 -11 -29 -7 -69 13 -280 67 -458 119
-231 66 -617 169 -774 206 -65 15 -122 31 -127 36 -4 4 -12 60 -18 123 -6 63
-14 139 -17 168 l-7 52 34 -6 c19 -3 135 -26 259 -50z m1990 -60 c15 -59 20
-106 18 -203 l-1 -126 -7 140 c-6 119 -18 191 -46 282 -5 17 -5 17 6 1 6 -10
20 -52 30 -94z m722 89 c-51 -18 -50 -29 1 -15 34 10 47 7 47 -8 0 -7 -106
-40 -128 -40 -7 0 -12 7 -12 15 0 8 7 15 15 15 8 0 12 6 9 13 -3 9 9 17 33 24
58 16 84 13 35 -4z m-145 -135 c-2 -24 -4 -5 -4 42 0 47 2 66 4 43 2 -24 2
-62 0 -85z m-4632 37 c94 -22 266 -45 339 -45 49 0 66 -3 66 -14 0 -15 -62
-26 -154 -26 -121 0 -312 54 -348 98 -11 14 -10 15 12 9 14 -4 52 -14 85 -22z
m4475 21 c0 -19 -22 -56 -30 -51 -5 3 -10 1 -10 -4 0 -17 -17 -13 -25 6 -4 12
1 24 15 35 20 16 50 24 50 14z m-3857 -37 c74 -40 238 -95 330 -110 l74 -12
21 -95 c12 -53 20 -97 18 -99 -7 -7 -169 63 -289 124 -83 43 -106 58 -89 61
12 2 50 -6 83 -18 34 -11 63 -19 64 -18 2 2 -42 28 -97 58 -109 60 -179 108
-186 128 -6 19 9 15 71 -19z m3172 -52 c32 -110 12 -374 -30 -416 -12 -12 -12
-7 1 35 24 81 29 245 10 347 -9 48 -20 95 -23 105 -6 14 -4 15 9 4 8 -7 23
-40 33 -75z m-1075 63 c20 -6 21 -8 5 -8 -11 0 -31 4 -45 8 -20 6 -21 8 -5 8
11 0 31 -4 45 -8z m160 -34 c206 -44 221 -48 217 -52 -4 -5 -270 49 -322 65
-55 17 -10 11 105 -13z m731 -103 c19 -110 23 -224 9 -278 -5 -19 -8 15 -9 95
-1 69 -8 161 -16 205 -16 90 -17 101 -9 92 3 -3 14 -54 25 -114z m-1849 25 c3
-24 4 -44 2 -46 -1 -2 -30 2 -64 8 -35 6 -75 8 -89 4 l-26 -6 25 -9 c14 -4 44
-13 68 -19 85 -22 31 -29 -171 -23 -111 3 -199 3 -196 -1 4 -4 54 -16 111 -26
148 -27 189 -39 220 -63 l27 -22 -147 7 c-81 3 -177 11 -215 18 l-67 12 -16
57 c-8 31 -18 64 -20 73 -4 14 5 17 53 22 32 4 112 13 178 21 153 20 263 32
296 34 24 1 27 -3 31 -41z m1812 -193 c1 -101 -3 -143 -17 -188 -11 -32 -20
-57 -22 -55 -1 2 4 46 12 98 11 76 12 119 4 218 -13 151 -13 158 6 102 11 -31
16 -87 17 -175z m356 159 c0 -15 -6 -24 -15 -24 -21 0 -30 27 -15 45 16 19 30
10 30 -21z m1269 -31 c43 -142 51 -194 49 -343 l-1 -145 -8 140 c-6 131 -31
261 -68 358 -13 35 -14 57 -2 57 5 0 19 -30 30 -67z m-1358 -150 l-10 -48 4
49 c3 27 6 85 7 130 l2 81 3 -82 c2 -44 -1 -103 -6 -130z m1539 202 c0 -7
-163 -55 -169 -50 -9 9 8 17 76 35 71 20 93 23 93 15z m-2066 -225 c0 -153
-14 -250 -41 -272 -14 -12 -15 -11 -5 8 29 55 37 243 17 429 l-5 50 17 -35
c14 -28 17 -63 17 -180z m1063 138 c-2 -13 -4 -3 -4 22 0 25 2 35 4 23 2 -13
2 -33 0 -45z m761 5 c68 -190 87 -341 63 -508 -4 -33 -7 4 -7 105 0 115 -5
171 -17 218 -20 72 -79 206 -96 216 -15 10 -4 26 18 26 13 0 24 -16 39 -57z
m-144 -10 c45 -88 59 -165 63 -353 3 -102 1 -202 -4 -223 -6 -27 -9 4 -10 109
-1 81 -4 148 -6 150 -2 3 -52 -19 -111 -47 -98 -47 -136 -55 -136 -30 0 5 43
32 97 61 148 79 145 76 138 135 -5 40 -35 129 -72 213 -11 25 27 11 41 -15z
m-4236 -17 c102 -51 339 -151 450 -190 105 -36 241 -101 280 -133 l24 -18 -99
-66 -99 -65 -235 -57 c-303 -74 -321 -77 -536 -85 l-182 -7 89 -56 90 -56
-163 -7 c-89 -4 -180 -12 -202 -18 -75 -22 -179 -13 -355 32 -91 23 -192 52
-225 65 -75 28 -223 100 -253 123 -21 17 -17 17 110 18 142 1 203 10 338 51
180 54 297 139 481 353 l57 65 43 -16 c24 -9 59 -23 76 -30 32 -13 34 -12 70
23 60 57 133 108 154 108 11 0 50 -15 87 -34z m2967 10 c0 -10 -8 -24 -18 -30
-15 -9 -21 -7 -33 9 -13 18 -13 21 3 33 24 17 48 11 48 -12z m1215 0 c0 -7
-32 -21 -77 -34 -43 -11 -86 -24 -95 -27 -14 -5 -18 -2 -18 13 0 16 12 23 60
35 35 9 60 11 60 5 0 -5 12 -1 27 10 29 21 43 20 43 -2z m500 -15 c0 -5 -9 -7
-20 -4 -11 3 -20 7 -20 9 0 2 9 4 20 4 11 0 20 -4 20 -9z m-3579 -40 c35 -11
122 -34 193 -51 71 -18 175 -45 230 -60 56 -16 205 -58 331 -94 194 -55 296
-81 514 -131 13 -4 21 -8 19 -11 -8 -7 -327 69 -540 130 -171 48 -810 216
-823 216 -3 0 -5 5 -5 10 0 14 9 13 81 -9z m2835 -13 c1 -13 15 -76 32 -141
19 -69 31 -140 31 -170 l-1 -52 -9 50 c-4 28 -25 111 -47 185 -21 74 -37 138
-35 143 9 16 28 6 29 -15z m754 4 c0 -9 -66 -32 -89 -32 -19 0 -12 16 12 28
27 13 77 15 77 4z m-480 -20 c0 -5 -28 -17 -62 -27 -35 -10 -76 -25 -91 -32
-30 -15 -48 -10 -30 8 12 12 142 59 166 59 9 0 17 -4 17 -8z m527 -44 c-3 -8
-6 -5 -6 6 -1 11 2 17 5 13 3 -3 4 -12 1 -19z m-517 -22 c0 -2 -39 -16 -86
-31 -69 -21 -89 -24 -95 -14 -6 10 7 17 53 26 34 7 66 14 72 17 14 6 56 7 56
2z m520 -189 c-6 -29 -18 -65 -26 -82 -8 -16 -12 -21 -8 -10 12 40 33 171 36
220 2 47 2 46 5 -13 2 -35 -1 -87 -7 -115z m-535 123 c-3 -5 -14 -10 -24 -10
-10 0 -44 -9 -75 -20 -36 -12 -56 -15 -54 -8 2 6 35 19 74 29 87 21 86 21 79
9z m-822 -100 c42 -125 50 -188 44 -343 -5 -120 -20 -228 -32 -215 -1 1 2 35
7 73 6 39 8 135 5 215 -4 122 -9 159 -32 230 -34 106 -41 138 -27 125 5 -5 21
-44 35 -85z m-142 -35 c24 -88 37 -241 21 -231 -7 4 -12 28 -12 54 0 26 -9 83
-21 127 -11 44 -23 91 -26 104 -4 17 -2 22 7 19 7 -2 21 -35 31 -73z m-92 16
c40 -78 62 -189 68 -345 5 -111 3 -147 -5 -142 -8 4 -12 37 -12 85 0 43 -3 99
-6 124 l-7 46 -106 -56 c-58 -30 -116 -60 -128 -67 -20 -10 -23 -19 -24 -81
l-2 -70 -7 65 c-9 76 -55 283 -76 342 -17 50 -17 48 1 48 17 0 37 -64 62 -192
9 -49 19 -87 22 -85 43 24 210 99 232 104 34 6 34 6 -15 156 -28 86 -32 107
-20 107 2 0 12 -17 23 -39z m591 29 c0 -5 -33 -19 -72 -30 -40 -12 -85 -25
-100 -30 -20 -6 -28 -5 -32 6 -5 14 40 30 144 52 61 13 60 13 60 2z m167 -245
c-3 -77 -10 -151 -16 -165 -8 -20 -9 -14 -3 30 4 30 7 132 7 225 0 131 1 156
8 110 4 -33 6 -123 4 -200z m33 -121 l-10 -39 5 49 c3 27 6 117 7 200 l2 151
3 -161 c2 -88 -1 -178 -7 -200z m-870 341 c0 -9 -38 -24 -109 -44 -96 -27 -91
-10 7 22 79 25 102 31 102 22z m265 -75 c8 -40 13 -75 11 -78 -3 -2 -8 9 -11
24 -4 16 -12 45 -19 64 -11 31 -12 41 -7 67 3 17 12 -9 26 -77z m-261 0 c-12
-12 -166 -49 -177 -43 -15 9 0 14 85 33 103 22 104 22 92 10z m-284 -31 c0
-18 -2 -19 -15 -9 -8 7 -15 16 -15 21 0 5 7 9 15 9 9 0 15 -9 15 -21z m-90
-75 c24 -79 54 -248 47 -266 -3 -7 -6 -1 -6 13 -1 20 -41 175 -78 302 -3 9 0
17 5 17 6 0 20 -30 32 -66z m1119 49 c-4 -8 -123 -43 -149 -42 -26 0 17 20 84
39 62 18 70 18 65 3z m-719 -3 c0 -5 -7 -10 -15 -10 -8 0 -15 5 -15 10 0 6 7
10 15 10 8 0 15 -4 15 -10z m-448 -97 c21 -54 42 -118 48 -143 16 -68 26 -340
12 -340 -6 0 -14 10 -18 23 -3 12 -14 30 -23 41 -22 25 -98 69 -112 64 -6 -2
10 -14 35 -28 25 -13 51 -29 56 -35 6 -7 -27 6 -73 29 -66 33 -78 42 -58 44
48 7 93 -9 136 -49 23 -21 45 -39 49 -39 9 0 7 100 -5 187 -5 43 -28 130 -50
193 -54 155 -53 150 -42 150 4 0 25 -44 45 -97z m408 88 c0 -8 -114 -41 -142
-41 -29 0 11 20 67 34 75 18 75 18 75 7z m-245 -18 c-4 -10 -7 -22 -7 -28 0
-5 3 -18 7 -27 4 -10 3 -18 -3 -18 -5 0 -13 12 -16 28 -4 15 -9 35 -12 45 -4
12 0 17 16 17 17 0 20 -4 15 -17z m-270 -3 c3 -5 -7 -12 -22 -16 -15 -3 -73
-20 -128 -36 -55 -17 -108 -32 -117 -35 -10 -3 -18 0 -18 5 0 6 33 21 73 32
39 12 97 30 127 40 65 22 77 23 85 10z m1275 -21 c-15 -9 -88 -32 -145 -45
-57 -13 -15 9 68 36 79 26 107 29 77 9z m-3109 -8 c30 -10 105 -44 166 -75 61
-31 116 -56 123 -56 7 0 -3 -17 -22 -38 -62 -69 -75 -190 -29 -280 24 -48 139
-166 206 -212 25 -17 67 -41 93 -52 l47 -21 -35 -15 c-19 -8 -150 -55 -290
-104 -741 -260 -891 -308 -966 -308 -70 0 -233 99 -342 209 -98 97 -206 283
-242 413 -22 82 -42 231 -34 252 4 11 48 15 207 19 232 6 423 20 652 47 88 10
279 31 425 45 281 28 299 31 284 44 -9 9 -133 -2 -529 -45 -132 -14 -322 -28
-422 -31 l-181 -6 -45 26 c-24 14 -50 33 -58 43 -13 15 -8 16 56 12 107 -8
262 9 455 47 191 39 311 70 350 91 34 18 68 17 131 -5z m1508 -72 c22 -78 41
-238 39 -319 l-1 -45 -9 55 c-4 30 -20 116 -35 190 -14 74 -28 153 -31 175 -6
61 13 32 37 -56z m336 52 c-14 -14 -256 -93 -263 -87 -9 10 0 14 123 55 121
41 157 49 140 32z m1255 -20 c0 -5 -10 -11 -22 -14 -22 -6 -22 -6 -4 8 23 17
26 18 26 6z m-90 -36 c-19 -7 -42 -13 -50 -13 -8 0 1 6 20 13 19 7 42 13 50
13 8 0 -1 -6 -20 -13z m-1130 -3 c0 -9 -249 -92 -275 -92 -42 0 -2 21 113 58
129 41 162 48 162 34z m677 -64 c-2 -13 -4 -3 -4 22 0 25 2 35 4 23 2 -13 2
-33 0 -45z m368 42 c-11 -5 -27 -9 -35 -9 -9 0 -8 4 5 9 11 5 27 9 35 9 9 0 8
-4 -5 -9z m-756 -199 c1 -109 -5 -83 -11 44 -3 69 -2 95 3 70 4 -22 8 -73 8
-114z m179 -3 l-1 -143 -10 117 c-8 105 -5 168 8 168 3 0 4 -64 3 -142z m49
100 c-3 -7 -5 -2 -5 12 0 14 2 19 5 13 2 -7 2 -19 0 -25z m-104 -102 c6 -128
0 -196 -14 -161 -16 41 -10 299 7 283 1 -2 5 -57 7 -122z m-4059 87 c4 -5 -19
-13 -51 -20 l-58 -12 75 6 c92 8 131 6 142 -5 6 -6 -29 -16 -84 -26 -87 -16
-147 -36 -108 -36 8 0 67 9 130 20 103 18 127 19 233 9 l117 -12 0 -38 c0 -37
-2 -39 -42 -49 -24 -6 -63 -17 -88 -25 -41 -12 -42 -13 -15 -14 17 -1 54 5 83
13 51 13 52 13 52 -10 0 -12 3 -30 7 -39 5 -16 0 -17 -58 -10 -142 15 -275 39
-494 90 -222 51 -479 127 -500 147 -6 6 50 7 160 4 94 -4 204 -2 245 2 96 12
244 14 254 5z m3496 -8 c-13 -15 -105 -45 -141 -45 -32 0 -19 9 53 36 76 28
106 31 88 9z m-975 -15 c47 -22 95 -59 78 -60 -6 0 -15 5 -18 11 -20 31 -153
48 -206 26 l-30 -12 21 -23 c18 -19 19 -23 5 -28 -8 -4 -26 1 -40 10 -30 20
-35 20 -35 2 0 -8 16 -16 42 -20 l41 -7 -23 -16 c-18 -13 -29 -14 -51 -6 -53
20 -41 -18 17 -54 17 -11 16 -12 -12 -12 -35 -1 -59 21 -69 62 -10 37 32 99
82 126 51 27 144 27 198 1z m-48 -36 c-3 -3 -12 -4 -19 -1 -8 3 -5 6 6 6 11 1
17 -2 13 -5z m923 -19 c-28 -16 -70 -21 -54 -6 9 9 38 18 64 19 8 1 4 -5 -10
-13z m417 -72 c-2 -16 -4 -3 -4 27 0 30 2 43 4 28 2 -16 2 -40 0 -55z m-159
15 c8 -10 -2 -13 -43 -13 -52 0 -61 8 -20 18 36 9 52 7 63 -5z m9 -181 l18
-22 -25 21 c-14 12 -49 34 -77 48 -29 15 -53 33 -53 41 0 17 106 -52 137 -88z
m160 21 c-2 -18 -4 -6 -4 27 0 33 2 48 4 33 2 -15 2 -42 0 -60z m-530 15 c58
-40 136 -114 127 -121 -4 -4 -9 -1 -11 5 -3 7 -42 40 -89 74 -46 33 -84 62
-84 65 0 10 20 2 57 -23z m-97 -18 c30 -32 14 -32 -25 0 -20 17 -25 25 -14 25
8 0 26 -11 39 -25z m102 -34 c9 -11 35 -32 57 -47 39 -26 45 -44 15 -44 -8 0
-42 18 -75 41 -42 28 -59 45 -55 56 3 8 6 19 6 24 0 13 31 -4 52 -30z m-24
-83 c97 -65 154 -109 148 -115 -6 -6 -207 129 -225 151 -23 27 -4 18 77 -36z
m-2800 -55 c-2 -9 -19 -22 -38 -29 l-35 -12 41 -1 c24 -1 47 -7 54 -16 14 -16
18 -14 -65 -39 l-50 -15 75 2 c62 2 75 -1 78 -15 2 -12 -7 -18 -35 -23 -69
-11 -75 -27 -8 -21 54 5 62 3 74 -15 15 -25 16 -24 -34 -37 l-40 -11 43 5 c35
5 47 2 65 -15 12 -12 43 -40 70 -62 43 -39 46 -43 30 -55 -16 -13 -16 -14 7
-9 16 3 38 -2 60 -16 l35 -22 -25 -7 c-14 -4 -42 -10 -62 -14 -34 -6 -38 -4
-52 22 -8 16 -12 33 -8 37 4 4 -12 5 -35 1 -40 -6 -45 -3 -92 38 -63 56 -128
99 -313 210 -81 48 -150 92 -153 97 -4 5 11 9 32 10 21 0 106 7 188 14 210 17
197 17 193 -2z m2837 -52 c-12 -11 -168 -66 -214 -75 -60 -11 -24 8 87 46 110
37 144 45 127 29z m-1776 -345 c-2 -2 -78 -29 -168 -61 -90 -31 -197 -73 -238
-91 -41 -19 -81 -34 -89 -34 -8 0 -19 12 -25 27 -6 16 -17 35 -25 44 -14 15
-11 16 26 6 52 -14 160 7 355 68 125 39 177 52 164 41z"/>
<path d="M4740 8000 c0 -5 7 -10 16 -10 8 0 12 5 9 10 -3 6 -10 10 -16 10 -5
0 -9 -4 -9 -10z"/>
<path d="M4775 7887 c-36 -12 -102 -56 -132 -89 -12 -13 -31 -45 -43 -71 -20
-44 -23 -47 -59 -47 -22 0 -63 -12 -97 -30 -130 -65 -198 -155 -198 -265 0
-102 52 -164 142 -171 l47 -4 -40 15 c-107 42 -141 146 -84 255 24 46 45 69
99 112 64 51 108 71 154 70 40 0 42 1 65 50 48 101 152 175 228 163 25 -4 33
-3 23 3 -26 16 -74 20 -105 9z"/>
<path d="M5035 7851 c-60 -15 -120 -55 -195 -130 -87 -86 -118 -150 -127 -258
-19 -221 173 -467 344 -440 102 17 250 123 295 211 26 50 35 155 19 214 -24
86 -111 151 -204 152 -56 0 -95 -18 -130 -60 -69 -81 -30 -246 56 -238 44 4
58 43 34 94 -18 36 -39 41 -45 10 -2 -10 4 -23 14 -30 20 -15 13 -46 -10 -46
-23 0 -55 40 -62 77 -26 139 97 214 236 143 105 -54 119 -231 27 -352 -48 -63
-150 -113 -231 -113 -153 0 -292 140 -313 315 -11 91 32 219 98 295 29 33 59
46 59 26 0 -5 7 -11 15 -15 13 -5 14 -2 4 15 -8 16 -7 24 5 38 23 26 117 69
165 77 22 4 38 10 35 15 -6 10 -46 10 -89 0z"/>
<path d="M5115 7770 c-24 -6 -17 -8 35 -9 89 -1 153 -27 217 -84 110 -101 152
-259 103 -390 -35 -93 -97 -175 -170 -226 -51 -35 -59 -43 -35 -37 49 12 131
72 176 128 130 164 122 345 -23 503 -80 88 -214 139 -303 115z"/>
<path d="M5615 7725 c36 -48 49 -90 50 -167 0 -59 10 -62 18 -5 10 73 -11 145
-56 195 -38 41 -48 23 -12 -23z"/>
<path d="M4944 7606 c-104 -109 -105 -312 -1 -403 86 -75 207 -57 274 40 31
45 42 134 23 191 -15 47 -63 86 -103 85 -29 0 -30 -1 -13 -12 74 -47 109 -98
108 -159 -1 -52 -39 -117 -82 -140 -42 -22 -120 -24 -161 -3 -73 38 -118 153
-99 253 13 69 34 109 83 155 22 20 34 37 27 37 -7 0 -32 -20 -56 -44z"/>
<path d="M4575 7427 c-62 -62 -66 -149 -10 -237 59 -94 120 -125 188 -96 51
21 46 34 -11 28 -32 -3 -59 1 -78 11 -38 20 -94 76 -105 105 -24 62 1 158 47
189 13 8 24 19 24 24 0 18 -23 8 -55 -24z"/>
<path d="M6788 7369 c12 -20 22 -46 22 -58 0 -11 5 -21 10 -21 6 0 10 5 10 10
0 21 -27 75 -46 90 -15 13 -15 10 4 -21z"/>
<path d="M6340 7319 c0 -4 11 -32 25 -62 23 -54 42 -140 47 -221 2 -22 8 -41
15 -43 32 -11 22 116 -18 221 -18 46 -68 122 -69 105z"/>
<path d="M6354 6878 c-39 -78 -94 -154 -165 -233 l-64 -69 61 46 c34 26 83 71
109 100 67 75 128 208 95 208 -5 0 -22 -24 -36 -52z"/>
<path d="M1320 6151 c-84 -26 -120 -68 -120 -143 0 -52 28 -101 72 -128 71
-43 140 -38 193 16 48 47 44 61 -6 24 -50 -36 -96 -46 -142 -31 -75 25 -113
103 -84 173 18 43 83 78 148 78 32 0 40 3 29 10 -17 11 -54 12 -90 1z"/>
<path d="M1360 6055 c-20 -24 -6 -28 15 -5 10 11 13 20 8 20 -6 0 -16 -7 -23
-15z"/>
<path d="M1069 5743 c5 -10 22 -29 37 -43 26 -23 25 -22 -5 18 -34 43 -49 55
-32 25z"/>
<path d="M4217 5841 c-6 -28 -36 -48 -64 -43 -8 2 -10 -3 -7 -13 3 -8 13 -15
21 -15 19 0 73 54 73 74 0 28 -18 26 -23 -3z"/>
<path d="M4125 5712 c-17 -9 -32 -18 -34 -19 -2 -2 -2 -6 1 -9 4 -3 18 2 32
12 38 24 47 7 11 -22 -30 -24 -20 -33 16 -14 19 11 25 36 11 57 -5 9 -15 7
-37 -5z"/>
<path d="M2348 3983 c7 -3 16 -2 19 1 4 3 -2 6 -13 5 -11 0 -14 -3 -6 -6z"/>
<path d="M5665 5205 c-49 -24 -88 -44 -85 -44 9 -2 175 70 185 80 18 18 -10 8
-100 -36z"/>
<path d="M5814 5204 c-18 -14 -18 -14 6 -3 31 14 36 19 24 19 -6 0 -19 -7 -30
-16z"/>
<path d="M1512 4606 c74 -30 151 -88 179 -133 l23 -37 12 30 c12 28 10 30 -34
62 -60 43 -92 60 -160 83 -76 26 -89 23 -20 -5z"/>
<path d="M3917 4903 c18 -2 50 -2 70 0 21 2 7 4 -32 4 -38 0 -55 -2 -38 -4z"/>
<path d="M3278 4853 c6 -2 18 -2 25 0 6 3 1 5 -13 5 -14 0 -19 -2 -12 -5z"/>
<path d="M2845 4740 c-8 -13 45 -13 65 0 11 7 6 10 -22 10 -20 0 -40 -4 -43
-10z"/>
<path d="M2691 3804 c0 -11 3 -14 6 -6 3 7 2 16 -1 19 -3 4 -6 -2 -5 -13z"/>
<path d="M2681 3734 c0 -11 3 -14 6 -6 3 7 2 16 -1 19 -3 4 -6 -2 -5 -13z"/>
<path d="M2671 3674 c0 -11 3 -14 6 -6 3 7 2 16 -1 19 -3 4 -6 -2 -5 -13z"/>
<path d="M2661 3624 c0 -11 3 -14 6 -6 3 7 2 16 -1 19 -3 4 -6 -2 -5 -13z"/>
<path d="M2218 3222 c-13 -33 -14 -41 -3 -32 11 9 14 8 14 -7 0 -34 17 -152
22 -158 6 -5 2 62 -9 175 l-7 65 -17 -43z"/>
<path d="M2363 2673 c-15 -5 -17 -23 -4 -23 5 0 11 7 15 15 3 8 4 15 3 14 -1
0 -8 -3 -14 -6z"/>
<path d="M3598 4403 c6 -2 18 -2 25 0 6 3 1 5 -13 5 -14 0 -19 -2 -12 -5z"/>
<path d="M3680 4389 c80 -16 264 -39 305 -38 22 1 -30 12 -115 25 -85 12 -173
23 -195 22 l-40 0 45 -9z"/>
<path d="M3613 4354 c6 -6 151 -24 302 -38 113 -11 8 13 -130 29 -141 16 -182
18 -172 9z"/>
<path d="M4008 4303 c7 -3 16 -2 19 1 4 3 -2 6 -13 5 -11 0 -14 -3 -6 -6z"/>
<path d="M3591 4295 c4 -4 177 -22 374 -39 92 -8 15 10 -119 29 -103 14 -265
21 -255 10z"/>
<path d="M3840 4199 c211 -36 463 -64 350 -38 -75 16 -513 79 -545 78 -16 -1
71 -19 195 -40z"/>
<path d="M4338 4133 c6 -2 18 -2 25 0 6 3 1 5 -13 5 -14 0 -19 -2 -12 -5z"/>
<path d="M3591 4116 c8 -9 200 -38 206 -32 8 8 -67 24 -142 32 -38 3 -67 3
-64 0z"/>
<path d="M3618 4063 c6 -2 18 -2 25 0 6 3 1 5 -13 5 -14 0 -19 -2 -12 -5z"/>
<path d="M3695 4049 c51 -10 92 -10 50 1 -16 4 -43 8 -60 8 -25 0 -24 -2 10
-9z"/>
<path d="M3840 4024 c36 -7 76 -13 90 -12 14 0 -6 6 -45 14 -38 7 -79 13 -90
12 -11 0 9 -6 45 -14z"/>
<path d="M3455 3762 c11 -12 157 -43 150 -32 -2 3 -30 12 -62 19 -32 7 -67 15
-78 18 -13 3 -17 2 -10 -5z"/>
<path d="M3718 3723 c7 -3 16 -2 19 1 4 3 -2 6 -13 5 -11 0 -14 -3 -6 -6z"/>
<path d="M3516 3706 c22 -7 65 -16 95 -19 l54 -6 -44 14 c-25 8 -67 17 -95 20
l-51 5 41 -14z"/>
<path d="M3700 3671 c8 -5 40 -11 70 -15 34 -3 46 -2 30 3 -40 13 -117 22
-100 12z"/>
<path d="M3506 3581 c-8 -12 -11 -11 174 -45 338 -63 353 -65 334 -46 -10 10
-352 82 -450 95 -33 4 -54 3 -58 -4z"/>
<path d="M4694 3586 c7 -51 16 -59 52 -44 l29 12 -28 4 c-20 2 -33 13 -43 35
l-15 32 5 -39z"/>
<path d="M3505 3090 c11 -5 29 -8 40 -8 16 0 15 2 -5 8 -34 11 -60 11 -35 0z"/>
<path d="M3578 3073 c6 -2 18 -2 25 0 6 3 1 5 -13 5 -14 0 -19 -2 -12 -5z"/>
<path d="M3490 3060 c0 -9 89 -24 96 -17 3 2 -18 9 -46 14 -27 6 -50 7 -50 3z"/>
<path d="M3501 3026 c7 -7 181 -37 185 -33 3 2 -33 12 -78 21 -82 16 -115 20
-107 12z"/>
<path d="M4370 3000 c0 -5 5 -10 11 -10 5 0 7 5 4 10 -3 6 -8 10 -11 10 -2 0
-4 -4 -4 -10z"/>
<path d="M4418 2993 c6 -2 18 -2 25 0 6 3 1 5 -13 5 -14 0 -19 -2 -12 -5z"/>
<path d="M3518 2963 c7 -3 16 -2 19 1 4 3 -2 6 -13 5 -11 0 -14 -3 -6 -6z"/>
<path d="M3550 2956 c0 -7 190 -39 196 -34 2 3 -36 13 -85 22 -93 17 -111 19
-111 12z"/>
<path d="M4195 2901 c29 -11 133 -22 115 -12 -8 5 -42 11 -75 14 -33 3 -51 2
-40 -2z"/>
<path d="M4238 2853 c6 -2 18 -2 25 0 6 3 1 5 -13 5 -14 0 -19 -2 -12 -5z"/>
<path d="M4298 2843 c7 -3 16 -2 19 1 4 3 -2 6 -13 5 -11 0 -14 -3 -6 -6z"/>
<path d="M4938 3053 c7 -3 16 -2 19 1 4 3 -2 6 -13 5 -11 0 -14 -3 -6 -6z"/>
<path d="M3265 2663 c6 -5 71 -20 145 -33 181 -30 377 -73 533 -116 71 -20
131 -33 133 -31 3 2 -79 28 -180 56 -179 50 -278 72 -491 105 -55 9 -111 19
-125 22 -16 4 -21 3 -15 -3z"/>
<path d="M3266 2621 c-7 -11 35 -26 118 -40 71 -13 66 -13 66 -3 0 5 -35 17
-77 27 -43 10 -83 20 -89 22 -7 2 -15 0 -18 -6z"/>
<path d="M3283 2553 c4 -6 32 -14 63 -18 32 -4 64 -9 72 -13 9 -3 13 -1 9 5
-4 6 -27 13 -52 16 -25 4 -57 10 -71 13 -18 5 -25 3 -21 -3z"/>
<path d="M3588 2553 c7 -3 16 -2 19 1 4 3 -2 6 -13 5 -11 0 -14 -3 -6 -6z"/>
<path d="M3628 2543 c6 -2 18 -2 25 0 6 3 1 5 -13 5 -14 0 -19 -2 -12 -5z"/>
<path d="M3690 2530 c14 -4 34 -8 45 -8 16 0 15 2 -5 8 -14 4 -34 8 -45 8 -16
0 -15 -2 5 -8z"/>
<path d="M3768 2513 c7 -3 16 -2 19 1 4 3 -2 6 -13 5 -11 0 -14 -3 -6 -6z"/>
<path d="M3313 2504 c9 -9 419 -85 442 -82 24 3 -140 39 -310 68 -131 22 -141
23 -132 14z"/>
<path d="M4128 2463 c7 -3 16 -2 19 1 4 3 -2 6 -13 5 -11 0 -14 -3 -6 -6z"/>
<path d="M3290 2455 c0 -12 61 -28 268 -71 236 -49 295 -56 157 -18 -172 46
-425 99 -425 89z"/>
<path d="M3915 2430 c68 -18 113 -24 104 -16 -6 6 -151 36 -164 35 -5 -1 22
-9 60 -19z"/>
<path d="M3300 2401 c0 -14 497 -137 508 -126 3 3 1 5 -4 5 -5 0 -120 29 -256
64 -137 36 -248 61 -248 57z"/>
<path d="M3918 2313 c7 -3 16 -2 19 1 4 3 -2 6 -13 5 -11 0 -14 -3 -6 -6z"/>
<path d="M3968 2303 c7 -3 16 -2 19 1 4 3 -2 6 -13 5 -11 0 -14 -3 -6 -6z"/>
<path d="M4065 2279 c39 -10 77 -18 85 -18 8 1 -16 9 -55 20 -38 10 -77 18
-85 18 -8 -1 17 -9 55 -20z"/>
<path d="M2040 2088 c-60 -51 -240 -168 -319 -207 -42 -21 -120 -55 -174 -76
-54 -20 -96 -40 -93 -43 9 -8 178 49 272 93 108 50 217 122 299 198 63 58 75
87 15 35z"/>
<path d="M1769 2059 c-35 -28 -68 -55 -74 -61 -15 -16 79 50 117 83 56 48 24
32 -43 -22z"/>
<path d="M2180 2059 c-30 -22 -113 -76 -185 -121 -142 -89 -195 -129 -100 -77
141 77 345 216 345 235 0 7 -3 5 -60 -37z"/>
<path d="M2324 2069 c-73 -58 -218 -152 -304 -196 -106 -55 -56 -46 59 10 88
42 215 131 265 186 38 40 30 40 -20 0z"/>
<path d="M2443 1991 c-103 -74 -189 -122 -272 -152 -82 -29 -64 -37 20 -9 77
26 152 67 239 131 58 42 110 89 99 89 -2 0 -41 -27 -86 -59z"/>
<path d="M2580 1939 c-67 -50 -74 -58 -35 -35 33 19 103 75 95 76 -3 0 -30
-18 -60 -41z"/>
<path d="M2915 1515 c-58 -20 -376 -110 -456 -130 -57 -14 -221 -46 -364 -71
-256 -45 -331 -63 -205 -50 216 22 471 62 595 92 111 28 426 129 465 150 l25
13 -25 0 c-14 0 -29 -2 -35 -4z"/>
<path d="M2285 1500 c-27 -5 -126 -19 -220 -31 -93 -13 -162 -25 -153 -27 18
-3 381 42 453 57 l40 9 -35 0 c-19 0 -57 -4 -85 -8z"/>
<path d="M2475 1459 c-44 -10 -177 -34 -295 -54 -287 -48 -373 -65 -385 -77
-7 -7 0 -8 20 -4 17 3 125 20 240 36 116 17 249 40 297 50 99 22 228 59 228
65 0 8 -19 5 -105 -16z"/>
<path d="M2865 1389 c-161 -45 -474 -116 -690 -154 -110 -20 -216 -40 -235
-44 l-35 -9 41 -1 c148 -4 939 173 1024 229 22 14 7 11 -105 -21z"/>
<path d="M2950 1309 c-208 -63 -480 -124 -809 -179 -177 -30 -239 -48 -121
-35 310 34 932 173 1030 230 37 21 6 17 -100 -16z"/>
<path d="M2930 1209 c-321 -95 -531 -137 -837 -170 -62 -6 -110 -15 -107 -20
5 -9 37 -7 209 12 159 18 326 49 510 95 177 44 346 95 375 114 28 18 -10 10
-150 -31z"/>
<path d="M3010 1144 c-261 -73 -613 -148 -775 -164 -60 -6 -114 -13 -120 -16
-25 -11 269 7 349 21 174 32 696 174 696 191 0 8 -26 3 -150 -32z"/>
<path d="M2355 879 c-84 -12 -92 -20 -15 -14 70 6 148 24 100 23 -14 0 -52 -4
-85 -9z"/>
<path d="M1008 1573 c6 -2 18 -2 25 0 6 3 1 5 -13 5 -14 0 -19 -2 -12 -5z"/>
<path d="M1218 1511 c-51 -7 -77 -21 -37 -20 13 0 58 6 99 13 63 11 68 13 30
13 -25 0 -66 -3 -92 -6z"/>
<path d="M1332 1479 c-35 -11 -62 -23 -59 -25 6 -7 119 25 132 37 13 13 -1 11
-73 -12z"/>
<path d="M280 2100 c-24 -42 -28 -45 -63 -42 -44 3 -46 -5 -10 -34 26 -20 26
-23 15 -61 -18 -62 -16 -66 27 -41 l40 23 25 -24 26 -24 0 51 c0 43 4 53 23
64 21 12 21 13 -13 18 -34 5 -35 6 -40 60 l-5 55 -25 -45z"/>
<path d="M372 1549 c3 -9 23 -15 54 -17 60 -4 50 14 -15 24 -35 6 -43 4 -39
-7z"/>
<path d="M6770 1470 c-15 -30 -27 -40 -44 -40 -13 0 -29 -7 -36 -15 -22 -27
131 -245 173 -245 4 0 7 8 7 18 0 9 34 54 76 99 l76 83 -83 -1 c-67 -1 -86 3
-108 19 -23 17 -26 25 -23 71 4 62 -10 66 -38 11z m125 -180 c-32 -34 -50 -38
-59 -14 -9 24 10 42 47 46 44 4 45 2 12 -32z"/>
<path d="M6330 1396 c-19 -7 -64 -27 -100 -44 -36 -16 -139 -63 -230 -102
-170 -75 -212 -94 -610 -274 -244 -111 -361 -175 -427 -234 -21 -19 -71 -59
-110 -89 -40 -31 -73 -59 -73 -63 0 -4 24 -7 53 -5 28 1 40 0 25 -2 -14 -2
-31 -10 -37 -16 -11 -15 -64 -11 -281 21 -528 78 -759 97 -869 72 -50 -11 -54
-14 -33 -23 12 -5 22 -19 22 -29 0 -18 -7 -19 -80 -17 -44 1 -82 0 -85 -3 -2
-2 23 -10 56 -17 33 -6 77 -21 97 -31 37 -19 158 -38 377 -60 126 -13 575 -76
650 -92 56 -12 52 -11 255 -27 198 -16 200 -18 15 -17 -127 1 -208 -6 -395
-31 -329 -44 -544 -58 -925 -58 -342 1 -524 13 -815 55 -490 72 -930 190
-1305 350 -110 47 -212 98 -432 217 -46 25 -83 41 -83 36 0 -6 22 -33 50 -61
27 -28 50 -54 50 -56 0 -18 -168 78 -241 137 -55 44 -60 47 -41 20 55 -78 135
-132 359 -246 122 -61 220 -113 219 -115 -2 -1 -57 23 -122 55 -150 74 -282
133 -297 133 -6 0 4 -14 23 -31 39 -34 27 -29 -36 13 -35 23 -167 88 -180 88
-35 0 107 -103 283 -206 264 -154 569 -290 828 -369 260 -79 615 -160 850
-194 344 -50 456 -56 910 -54 237 2 475 8 530 14 282 29 642 92 960 165 83 19
202 39 265 45 122 10 170 17 170 28 0 3 24 7 53 8 83 3 177 14 177 21 0 4 -25
18 -56 31 -30 13 -51 27 -47 31 4 4 76 38 158 75 228 103 415 207 599 332 120
82 238 174 232 181 -6 5 -104 -48 -326 -177 -242 -139 -626 -321 -735 -347
-51 -12 -23 3 71 39 49 19 124 51 167 71 78 37 300 183 392 256 28 22 73 53
100 68 105 58 382 280 323 259 -10 -4 -57 -33 -105 -65 -85 -57 -605 -328
-728 -379 -33 -13 -157 -58 -275 -100 l-215 -74 -95 4 c-159 7 -353 29 -337
38 8 5 41 15 73 23 116 28 241 78 429 171 258 127 594 286 742 351 289 126
325 153 305 223 -15 48 -54 91 -84 91 -13 -1 -39 -7 -58 -14z m76 -34 c16 -10
34 -48 34 -70 0 -24 -52 -62 -58 -43 -2 7 -19 32 -38 57 -35 46 -34 55 4 28
12 -8 22 -11 22 -5 0 5 -5 13 -10 16 -6 4 -8 11 -5 16 7 11 36 12 51 1z m-87
-51 c12 -16 21 -42 20 -58 0 -26 -1 -26 -15 11 -8 22 -22 48 -31 58 -9 10 -11
18 -5 18 6 0 20 -13 31 -29z m-39 -14 c19 -26 26 -92 11 -102 -7 -4 -11 4 -11
20 0 16 -12 38 -29 56 -26 26 -28 30 -13 39 23 13 25 12 42 -13z m-126 -56
c13 -14 14 -20 4 -28 -7 -5 -146 -69 -308 -143 -162 -73 -378 -173 -479 -221
l-184 -89 27 -25 c15 -14 26 -31 24 -38 -8 -25 -178 -65 -178 -41 0 3 14 17
30 31 17 13 30 28 30 31 0 4 -20 7 -45 8 -25 1 -50 5 -55 10 -11 11 72 69 128
88 20 7 96 41 167 74 130 60 583 266 725 329 88 38 92 39 114 14z m46 -6 c7
-8 8 -15 2 -15 -5 0 -15 7 -22 15 -7 8 -8 15 -2 15 5 0 15 -7 22 -15z m-40
-78 c0 -15 -50 -41 -360 -187 -107 -51 -273 -130 -369 -176 -95 -46 -175 -84
-177 -84 -2 0 -4 7 -4 15 0 28 93 75 825 408 94 43 85 40 85 24z m-1160 -462
c32 -16 38 -29 32 -62 -3 -14 -14 -24 -31 -28 -73 -16 -80 -15 -108 9 -25 21
-26 25 -13 41 16 19 70 55 83 55 4 0 21 -7 37 -15z m-1153 -97 c24 -23 43 -46
43 -50 0 -13 -135 -9 -152 5 -15 11 -15 15 -1 50 21 52 54 50 110 -5z m306 2
c128 -16 333 -43 457 -60 124 -16 270 -34 325 -40 230 -24 355 -44 355 -56 0
-32 -20 -62 -37 -58 -10 2 -214 29 -453 59 -239 30 -531 67 -648 83 l-213 28
-37 37 -37 37 28 0 c16 0 132 -13 260 -30z m-2558 -90 c94 -39 229 -91 300
-115 486 -163 1092 -255 1675 -255 198 0 634 20 775 35 28 3 133 14 235 25
102 11 255 29 340 40 85 11 162 20 170 19 34 -2 -66 -20 -245 -44 -620 -81
-1191 -117 -1541 -96 -470 27 -981 121 -1374 251 -147 49 -431 163 -498 201
-52 28 -30 20 163 -61z m3775 -92 c0 -43 -12 -68 -31 -68 -22 0 -25 26 -7 65
14 31 38 33 38 3z m46 -20 c-8 -48 -10 -53 -25 -43 -23 14 -9 85 16 85 13 0
14 -8 9 -42z m170 3 c60 -25 69 -31 66 -52 -4 -44 -9 -47 -77 -48 -99 -1 -115
5 -115 44 0 30 32 85 49 85 4 0 39 -13 77 -29z m-3642 -92 c55 -16 142 -39
191 -50 50 -11 136 -31 191 -44 265 -64 594 -111 934 -135 l255 -17 -161 -2
c-241 -2 -550 33 -866 98 -254 53 -688 171 -688 187 0 3 9 2 21 -1 12 -4 67
-20 123 -36z m2543 -195 c-3 -3 -12 -4 -19 -1 -8 3 -5 6 6 6 11 1 17 -2 13 -5z
m-144 -21 c-7 -2 -21 -2 -30 0 -10 3 -4 5 12 5 17 0 24 -2 18 -5z m-85 -10
c-10 -2 -26 -2 -35 0 -10 3 -2 5 17 5 19 0 27 -2 18 -5z m-95 -10 c-7 -2 -21
-2 -30 0 -10 3 -4 5 12 5 17 0 24 -2 18 -5z"/>
<path d="M1120 1336 c0 -2 13 -6 29 -8 17 -2 28 -1 25 4 -5 8 -54 12 -54 4z"/>
<path d="M5788 1333 c6 -2 18 -2 25 0 6 3 1 5 -13 5 -14 0 -19 -2 -12 -5z"/>
<path d="M5405 1220 c-93 -4 -183 -10 -200 -14 -59 -16 -195 -70 -195 -78 0
-12 12 -10 56 11 78 38 164 51 393 61 123 5 227 7 232 4 5 -3 19 -2 32 2 21 8
20 8 -8 15 -35 8 -81 8 -310 -1z"/>
<path d="M5580 1189 c0 -4 6 -9 13 -12 6 -2 -35 -2 -93 1 -124 5 -287 -16
-405 -54 -75 -23 -417 -185 -460 -217 -11 -9 -17 -19 -13 -22 4 -4 89 36 190
90 101 53 201 100 223 105 22 5 65 16 96 24 71 20 218 36 337 36 111 0 188 16
172 35 -12 15 -60 26 -60 14z"/>
<path d="M4840 1060 c-37 -28 -19 -33 20 -5 19 14 27 25 19 25 -8 0 -25 -9
-39 -20z"/>
<path d="M4883 981 c-88 -43 -280 -174 -262 -180 6 -2 34 12 62 30 29 18 99
60 157 95 117 70 150 93 134 94 -5 0 -47 -18 -91 -39z"/>
<path d="M4950 936 c-118 -41 -212 -97 -292 -175 -57 -53 -65 -79 -10 -29 82
74 314 208 361 208 5 0 13 5 16 10 9 14 0 12 -75 -14z"/>
<path d="M3853 903 c9 -2 23 -2 30 0 6 3 -1 5 -18 5 -16 0 -22 -2 -12 -5z"/>
<path d="M4430 867 c-219 -78 -276 -100 -285 -109 -11 -12 -13 -12 120 27 135
40 235 77 235 86 0 16 -16 15 -70 -4z"/>
<path d="M4180 830 l-25 -8 28 -1 c15 -1 27 4 27 9 0 6 -1 10 -2 9 -2 -1 -14
-5 -28 -9z"/>
<path d="M4311 770 c-168 -60 -178 -65 -164 -73 17 -10 312 88 336 112 25 25
-24 14 -172 -39z"/>
<path d="M4560 734 l-25 -15 25 7 c14 3 32 10 40 15 13 7 13 8 0 8 -8 0 -26
-6 -40 -15z"/>
</g>
</svg>
